<mxfile host="app.diagrams.net" modified="2024-01-19T19:53:46.230Z" agent="Mozilla/5.0 (Windows NT 10.0; Win64; x64) AppleWebKit/537.36 (KHTML, like Gecko) Chrome/120.0.0.0 Safari/537.36" etag="zwQS7gWaRB9mYXNFt56N" version="22.1.17" type="device" pages="4">
  <diagram id="P4eZxMn3C0Fp1Suz2lT2" name="Key">
    <mxGraphModel dx="1214" dy="624" grid="1" gridSize="10" guides="1" tooltips="1" connect="1" arrows="1" fold="1" page="1" pageScale="1" pageWidth="850" pageHeight="1100" math="0" shadow="0">
      <root>
        <mxCell id="0" />
        <mxCell id="1" parent="0" />
        <mxCell id="o1Vz-9gyMiP_Tf9thoiS-1" value="Process" style="rounded=1;arcSize=18;whiteSpace=wrap;html=1;align=center;" vertex="1" parent="1">
          <mxGeometry x="40" y="110" width="120" height="60" as="geometry" />
        </mxCell>
        <mxCell id="o1Vz-9gyMiP_Tf9thoiS-2" value="Yes" style="shape=ellipse;html=1;dashed=0;whiteSpace=wrap;perimeter=ellipsePerimeter;fillColor=#cdeb8b;strokeColor=#36393d;" vertex="1" parent="1">
          <mxGeometry x="310" y="90" width="40" height="40" as="geometry" />
        </mxCell>
        <mxCell id="o1Vz-9gyMiP_Tf9thoiS-3" value="No" style="shape=ellipse;html=1;dashed=0;whiteSpace=wrap;perimeter=ellipsePerimeter;fillColor=#ffcc99;strokeColor=#36393d;" vertex="1" parent="1">
          <mxGeometry x="210" y="170" width="40" height="40" as="geometry" />
        </mxCell>
        <mxCell id="o1Vz-9gyMiP_Tf9thoiS-4" value="" style="edgeStyle=orthogonalEdgeStyle;rounded=0;orthogonalLoop=1;jettySize=auto;html=1;" edge="1" parent="1" source="o1Vz-9gyMiP_Tf9thoiS-6" target="o1Vz-9gyMiP_Tf9thoiS-2">
          <mxGeometry relative="1" as="geometry" />
        </mxCell>
        <mxCell id="o1Vz-9gyMiP_Tf9thoiS-5" value="" style="edgeStyle=orthogonalEdgeStyle;rounded=0;orthogonalLoop=1;jettySize=auto;html=1;" edge="1" parent="1" source="o1Vz-9gyMiP_Tf9thoiS-6" target="o1Vz-9gyMiP_Tf9thoiS-3">
          <mxGeometry relative="1" as="geometry" />
        </mxCell>
        <mxCell id="o1Vz-9gyMiP_Tf9thoiS-6" value="Question?" style="shape=rhombus;html=1;dashed=0;whiteSpace=wrap;perimeter=rhombusPerimeter;fillColor=#ffcccc;strokeColor=#36393d;" vertex="1" parent="1">
          <mxGeometry x="170" y="70" width="120" height="80" as="geometry" />
        </mxCell>
        <mxCell id="o1Vz-9gyMiP_Tf9thoiS-7" value="Sub Process" style="html=1;dashed=0;whiteSpace=wrap;shape=mxgraph.dfd.start;" vertex="1" parent="1">
          <mxGeometry x="40" y="190" width="120" height="40" as="geometry" />
        </mxCell>
        <mxCell id="o1Vz-9gyMiP_Tf9thoiS-8" value="Data" style="shape=parallelogram;perimeter=parallelogramPerimeter;whiteSpace=wrap;html=1;dashed=0;fillColor=#ffcccc;strokeColor=#36393d;" vertex="1" parent="1">
          <mxGeometry x="40" y="250" width="120" height="60" as="geometry" />
        </mxCell>
        <mxCell id="o1Vz-9gyMiP_Tf9thoiS-9" value="External Entity" style="shape=cube;whiteSpace=wrap;html=1;boundedLbl=1;backgroundOutline=1;darkOpacity=0.05;darkOpacity2=0.1;fillColor=#eeeeee;strokeColor=#36393d;" vertex="1" parent="1">
          <mxGeometry x="40" y="330" width="120" height="80" as="geometry" />
        </mxCell>
        <mxCell id="o1Vz-9gyMiP_Tf9thoiS-10" value="Note" style="shape=note;size=20;whiteSpace=wrap;html=1;fillColor=#ffff88;strokeColor=#36393d;" vertex="1" parent="1">
          <mxGeometry x="40" width="120" height="80" as="geometry" />
        </mxCell>
        <mxCell id="VKRYFS9aUILuv7kbjPH6-1" value="State" style="shape=ellipse;html=1;dashed=0;whiteSpace=wrap;aspect=fixed;perimeter=ellipsePerimeter;fillColor=#cce5ff;strokeColor=#36393d;" vertex="1" parent="1">
          <mxGeometry x="190" y="250" width="60" height="60" as="geometry" />
        </mxCell>
        <mxCell id="l0gHuHKp9YQ6CQxcZCDE-1" value="Remote&lt;br&gt;Relation" style="ellipse;shape=doubleEllipse;html=1;dashed=0;whiteSpace=wrap;aspect=fixed;fillColor=#eeeeee;strokeColor=#36393d;" vertex="1" parent="1">
          <mxGeometry x="190" y="330" width="60" height="60" as="geometry" />
        </mxCell>
        <mxCell id="CSMZsfGELCgSvxNwnf3i-1" value="POST" style="shape=ellipse;html=1;dashed=0;whiteSpace=wrap;aspect=fixed;perimeter=ellipsePerimeter;fillColor=#eeeeee;strokeColor=#36393d;" vertex="1" parent="1">
          <mxGeometry x="280" y="280" width="40" height="40" as="geometry" />
        </mxCell>
        <mxCell id="CSMZsfGELCgSvxNwnf3i-2" value="GET" style="shape=ellipse;html=1;dashed=0;whiteSpace=wrap;aspect=fixed;perimeter=ellipsePerimeter;fillColor=#eeeeee;strokeColor=#36393d;" vertex="1" parent="1">
          <mxGeometry x="280" y="240" width="40" height="40" as="geometry" />
        </mxCell>
        <mxCell id="CSMZsfGELCgSvxNwnf3i-3" value="PUT" style="shape=ellipse;html=1;dashed=0;whiteSpace=wrap;aspect=fixed;perimeter=ellipsePerimeter;fillColor=#eeeeee;strokeColor=#36393d;" vertex="1" parent="1">
          <mxGeometry x="280" y="320" width="40" height="40" as="geometry" />
        </mxCell>
        <mxCell id="CSMZsfGELCgSvxNwnf3i-4" value="DEL" style="shape=ellipse;html=1;dashed=0;whiteSpace=wrap;aspect=fixed;perimeter=ellipsePerimeter;fillColor=#eeeeee;strokeColor=#36393d;" vertex="1" parent="1">
          <mxGeometry x="280" y="360" width="40" height="40" as="geometry" />
        </mxCell>
        <mxCell id="movhtVnwM9eXsaILYNhp-1" value="Entity" style="html=1;dashed=0;whiteSpace=wrap;fillColor=#cce5ff;strokeColor=#36393d;" vertex="1" parent="1">
          <mxGeometry x="190" y="420" width="120" height="60" as="geometry" />
        </mxCell>
        <mxCell id="N3OoV9kRiBNDpwcBSkTV-1" value="Start / End" style="html=1;dashed=0;whiteSpace=wrap;shape=mxgraph.dfd.start;fillColor=#ffcc99;strokeColor=#36393d;" vertex="1" parent="1">
          <mxGeometry x="40" y="420" width="120" height="40" as="geometry" />
        </mxCell>
        <mxCell id="Zmy_-OKLQxkF2U6cvxAi-1" value="Selection" style="shape=rhombus;html=1;dashed=0;whiteSpace=wrap;perimeter=rhombusPerimeter;fillColor=#ffcccc;strokeColor=#36393d;" vertex="1" parent="1">
          <mxGeometry x="375" y="70" width="120" height="80" as="geometry" />
        </mxCell>
        <mxCell id="-kASFhvvLqGQLmZ20_2R-1" value="Delay/Await" style="shape=delay;whiteSpace=wrap;html=1;fillColor=#ffcc99;strokeColor=#36393d;" vertex="1" parent="1">
          <mxGeometry x="40" y="480" width="120" height="60" as="geometry" />
        </mxCell>
      </root>
    </mxGraphModel>
  </diagram>
  <diagram id="enLnYtQhhqzIC0UuvWKs" name="Client Flow - Join">
    <mxGraphModel dx="2726" dy="2064" grid="1" gridSize="10" guides="1" tooltips="1" connect="1" arrows="1" fold="1" page="1" pageScale="1" pageWidth="850" pageHeight="1100" math="0" shadow="0">
      <root>
        <mxCell id="0" />
        <mxCell id="1" parent="0" />
        <mxCell id="-9Mj6utBtVofY7VwkBSp-16" style="edgeStyle=orthogonalEdgeStyle;rounded=0;orthogonalLoop=1;jettySize=auto;html=1;" edge="1" parent="1" source="w4pXbUgxXDHrMp25yoSX-1" target="-9Mj6utBtVofY7VwkBSp-15">
          <mxGeometry relative="1" as="geometry" />
        </mxCell>
        <mxCell id="w4pXbUgxXDHrMp25yoSX-1" value="Client" style="html=1;dashed=0;whiteSpace=wrap;fillColor=#cce5ff;strokeColor=#36393d;" vertex="1" parent="1">
          <mxGeometry x="280" y="-180" width="120" height="60" as="geometry" />
        </mxCell>
        <mxCell id="rEtojGyQbFL76p9ON_u--10" style="edgeStyle=orthogonalEdgeStyle;rounded=0;orthogonalLoop=1;jettySize=auto;html=1;" edge="1" parent="1" source="o1Cqvydxd5hp45_O5Bor-1" target="-9Mj6utBtVofY7VwkBSp-1">
          <mxGeometry relative="1" as="geometry" />
        </mxCell>
        <mxCell id="o1Cqvydxd5hp45_O5Bor-1" value="Yes" style="shape=ellipse;html=1;dashed=0;whiteSpace=wrap;perimeter=ellipsePerimeter;fillColor=#cdeb8b;strokeColor=#36393d;" vertex="1" parent="1">
          <mxGeometry x="170" y="250" width="40" height="40" as="geometry" />
        </mxCell>
        <mxCell id="rEtojGyQbFL76p9ON_u--8" style="edgeStyle=orthogonalEdgeStyle;rounded=0;orthogonalLoop=1;jettySize=auto;html=1;" edge="1" parent="1" source="o1Cqvydxd5hp45_O5Bor-2" target="-9Mj6utBtVofY7VwkBSp-2">
          <mxGeometry relative="1" as="geometry" />
        </mxCell>
        <mxCell id="o1Cqvydxd5hp45_O5Bor-2" value="No" style="shape=ellipse;html=1;dashed=0;whiteSpace=wrap;perimeter=ellipsePerimeter;fillColor=#ffcc99;strokeColor=#36393d;" vertex="1" parent="1">
          <mxGeometry x="70" y="330" width="40" height="40" as="geometry" />
        </mxCell>
        <mxCell id="o1Cqvydxd5hp45_O5Bor-3" value="" style="edgeStyle=orthogonalEdgeStyle;rounded=0;orthogonalLoop=1;jettySize=auto;html=1;" edge="1" parent="1" source="o1Cqvydxd5hp45_O5Bor-5" target="o1Cqvydxd5hp45_O5Bor-1">
          <mxGeometry relative="1" as="geometry" />
        </mxCell>
        <mxCell id="o1Cqvydxd5hp45_O5Bor-4" value="" style="edgeStyle=orthogonalEdgeStyle;rounded=0;orthogonalLoop=1;jettySize=auto;html=1;" edge="1" parent="1" source="o1Cqvydxd5hp45_O5Bor-5" target="o1Cqvydxd5hp45_O5Bor-2">
          <mxGeometry relative="1" as="geometry" />
        </mxCell>
        <mxCell id="o1Cqvydxd5hp45_O5Bor-5" value="Has Account?" style="shape=rhombus;html=1;dashed=0;whiteSpace=wrap;perimeter=rhombusPerimeter;fillColor=#ffcccc;strokeColor=#36393d;" vertex="1" parent="1">
          <mxGeometry x="130" y="310" width="120" height="80" as="geometry" />
        </mxCell>
        <mxCell id="rEtojGyQbFL76p9ON_u--5" style="edgeStyle=orthogonalEdgeStyle;rounded=0;orthogonalLoop=1;jettySize=auto;html=1;" edge="1" parent="1" source="o1Cqvydxd5hp45_O5Bor-6" target="rEtojGyQbFL76p9ON_u--4">
          <mxGeometry relative="1" as="geometry" />
        </mxCell>
        <mxCell id="o1Cqvydxd5hp45_O5Bor-6" value="Yes" style="shape=ellipse;html=1;dashed=0;whiteSpace=wrap;perimeter=ellipsePerimeter;fillColor=#cdeb8b;strokeColor=#36393d;" vertex="1" parent="1">
          <mxGeometry x="420" y="160" width="40" height="40" as="geometry" />
        </mxCell>
        <mxCell id="rEtojGyQbFL76p9ON_u--3" style="edgeStyle=orthogonalEdgeStyle;rounded=0;orthogonalLoop=1;jettySize=auto;html=1;" edge="1" parent="1" source="o1Cqvydxd5hp45_O5Bor-7" target="-9Mj6utBtVofY7VwkBSp-23">
          <mxGeometry relative="1" as="geometry" />
        </mxCell>
        <mxCell id="o1Cqvydxd5hp45_O5Bor-7" value="No" style="shape=ellipse;html=1;dashed=0;whiteSpace=wrap;perimeter=ellipsePerimeter;fillColor=#ffcc99;strokeColor=#36393d;" vertex="1" parent="1">
          <mxGeometry x="320" y="240" width="40" height="40" as="geometry" />
        </mxCell>
        <mxCell id="o1Cqvydxd5hp45_O5Bor-8" value="" style="edgeStyle=orthogonalEdgeStyle;rounded=0;orthogonalLoop=1;jettySize=auto;html=1;" edge="1" parent="1" source="o1Cqvydxd5hp45_O5Bor-10" target="o1Cqvydxd5hp45_O5Bor-6">
          <mxGeometry relative="1" as="geometry" />
        </mxCell>
        <mxCell id="o1Cqvydxd5hp45_O5Bor-9" value="" style="edgeStyle=orthogonalEdgeStyle;rounded=0;orthogonalLoop=1;jettySize=auto;html=1;" edge="1" parent="1" source="o1Cqvydxd5hp45_O5Bor-10" target="o1Cqvydxd5hp45_O5Bor-7">
          <mxGeometry relative="1" as="geometry" />
        </mxCell>
        <mxCell id="o1Cqvydxd5hp45_O5Bor-10" value="Logged In?" style="shape=rhombus;html=1;dashed=0;whiteSpace=wrap;perimeter=rhombusPerimeter;fillColor=#ffcccc;strokeColor=#36393d;" vertex="1" parent="1">
          <mxGeometry x="280" y="140" width="120" height="80" as="geometry" />
        </mxCell>
        <mxCell id="rEtojGyQbFL76p9ON_u--7" style="edgeStyle=orthogonalEdgeStyle;rounded=0;orthogonalLoop=1;jettySize=auto;html=1;" edge="1" parent="1" source="-9Mj6utBtVofY7VwkBSp-1" target="o1Cqvydxd5hp45_O5Bor-10">
          <mxGeometry relative="1" as="geometry" />
        </mxCell>
        <mxCell id="-9Mj6utBtVofY7VwkBSp-1" value="Attempt Login" style="rounded=1;arcSize=18;whiteSpace=wrap;html=1;align=center;" vertex="1" parent="1">
          <mxGeometry x="130" y="150" width="120" height="60" as="geometry" />
        </mxCell>
        <mxCell id="yG1h8HdJMjZUUIjRDg7j-13" style="edgeStyle=orthogonalEdgeStyle;rounded=0;orthogonalLoop=1;jettySize=auto;html=1;entryX=0;entryY=0.25;entryDx=0;entryDy=0;exitX=0.5;exitY=1;exitDx=0;exitDy=0;" edge="1" parent="1" source="-9Mj6utBtVofY7VwkBSp-2" target="yG1h8HdJMjZUUIjRDg7j-1">
          <mxGeometry relative="1" as="geometry" />
        </mxCell>
        <mxCell id="yG1h8HdJMjZUUIjRDg7j-15" style="edgeStyle=orthogonalEdgeStyle;rounded=0;orthogonalLoop=1;jettySize=auto;html=1;" edge="1" parent="1" source="-9Mj6utBtVofY7VwkBSp-2" target="csgJjIn2YreueZBpic8D-3">
          <mxGeometry relative="1" as="geometry" />
        </mxCell>
        <mxCell id="-9Mj6utBtVofY7VwkBSp-2" value="Send Signup &lt;br&gt;Request" style="rounded=1;arcSize=18;whiteSpace=wrap;html=1;align=center;" vertex="1" parent="1">
          <mxGeometry x="-80" y="320" width="120" height="60" as="geometry" />
        </mxCell>
        <mxCell id="-9Mj6utBtVofY7VwkBSp-20" style="edgeStyle=orthogonalEdgeStyle;rounded=0;orthogonalLoop=1;jettySize=auto;html=1;" edge="1" parent="1" source="-9Mj6utBtVofY7VwkBSp-15" target="-9Mj6utBtVofY7VwkBSp-19">
          <mxGeometry relative="1" as="geometry" />
        </mxCell>
        <mxCell id="-9Mj6utBtVofY7VwkBSp-15" value="Connect to site" style="rounded=1;arcSize=18;whiteSpace=wrap;html=1;align=center;" vertex="1" parent="1">
          <mxGeometry x="280" y="-100" width="120" height="60" as="geometry" />
        </mxCell>
        <mxCell id="-9Mj6utBtVofY7VwkBSp-22" style="edgeStyle=orthogonalEdgeStyle;rounded=0;orthogonalLoop=1;jettySize=auto;html=1;" edge="1" parent="1" source="-9Mj6utBtVofY7VwkBSp-18" target="o1Cqvydxd5hp45_O5Bor-10">
          <mxGeometry relative="1" as="geometry" />
        </mxCell>
        <mxCell id="-9Mj6utBtVofY7VwkBSp-18" value="Application" style="html=1;dashed=0;whiteSpace=wrap;fillColor=#cce5ff;strokeColor=#36393d;" vertex="1" parent="1">
          <mxGeometry x="280" y="60" width="120" height="60" as="geometry" />
        </mxCell>
        <mxCell id="-9Mj6utBtVofY7VwkBSp-21" style="edgeStyle=orthogonalEdgeStyle;rounded=0;orthogonalLoop=1;jettySize=auto;html=1;" edge="1" parent="1" source="-9Mj6utBtVofY7VwkBSp-19" target="-9Mj6utBtVofY7VwkBSp-18">
          <mxGeometry relative="1" as="geometry" />
        </mxCell>
        <mxCell id="-9Mj6utBtVofY7VwkBSp-19" value="Run React App" style="rounded=1;arcSize=18;whiteSpace=wrap;html=1;align=center;" vertex="1" parent="1">
          <mxGeometry x="280" y="-20" width="120" height="60" as="geometry" />
        </mxCell>
        <mxCell id="rEtojGyQbFL76p9ON_u--6" style="edgeStyle=orthogonalEdgeStyle;rounded=0;orthogonalLoop=1;jettySize=auto;html=1;" edge="1" parent="1" source="-9Mj6utBtVofY7VwkBSp-23" target="o1Cqvydxd5hp45_O5Bor-5">
          <mxGeometry relative="1" as="geometry" />
        </mxCell>
        <mxCell id="-9Mj6utBtVofY7VwkBSp-23" value="Authentication Page" style="html=1;dashed=0;whiteSpace=wrap;fillColor=#cce5ff;strokeColor=#36393d;" vertex="1" parent="1">
          <mxGeometry x="280" y="320" width="120" height="60" as="geometry" />
        </mxCell>
        <mxCell id="swormeM2gexrQWOT3scs-4" style="rounded=0;orthogonalLoop=1;jettySize=auto;html=1;elbow=vertical;" edge="1" parent="1" source="rEtojGyQbFL76p9ON_u--4" target="swormeM2gexrQWOT3scs-1">
          <mxGeometry relative="1" as="geometry" />
        </mxCell>
        <mxCell id="swormeM2gexrQWOT3scs-5" style="rounded=0;orthogonalLoop=1;jettySize=auto;html=1;elbow=vertical;" edge="1" parent="1" source="rEtojGyQbFL76p9ON_u--4" target="swormeM2gexrQWOT3scs-2">
          <mxGeometry relative="1" as="geometry" />
        </mxCell>
        <mxCell id="swormeM2gexrQWOT3scs-6" style="rounded=0;orthogonalLoop=1;jettySize=auto;html=1;elbow=vertical;" edge="1" parent="1" source="rEtojGyQbFL76p9ON_u--4" target="swormeM2gexrQWOT3scs-3">
          <mxGeometry relative="1" as="geometry" />
        </mxCell>
        <mxCell id="rEtojGyQbFL76p9ON_u--4" value="Game Page" style="html=1;dashed=0;whiteSpace=wrap;fillColor=#cce5ff;strokeColor=#36393d;" vertex="1" parent="1">
          <mxGeometry x="680" y="150" width="120" height="60" as="geometry" />
        </mxCell>
        <mxCell id="IxXvpSPrSP6qbk2YBJeQ-4" style="edgeStyle=orthogonalEdgeStyle;rounded=0;orthogonalLoop=1;jettySize=auto;html=1;" edge="1" parent="1" source="swormeM2gexrQWOT3scs-1" target="IuJjc1mCsAfGJQBcyoiD-2">
          <mxGeometry relative="1" as="geometry" />
        </mxCell>
        <mxCell id="swormeM2gexrQWOT3scs-1" value="New Game?" style="shape=rhombus;html=1;dashed=0;whiteSpace=wrap;perimeter=rhombusPerimeter;fillColor=#ffcccc;strokeColor=#36393d;" vertex="1" parent="1">
          <mxGeometry x="540" y="280" width="120" height="80" as="geometry" />
        </mxCell>
        <mxCell id="IxXvpSPrSP6qbk2YBJeQ-9" style="edgeStyle=orthogonalEdgeStyle;rounded=0;orthogonalLoop=1;jettySize=auto;html=1;" edge="1" parent="1" source="swormeM2gexrQWOT3scs-2" target="IxXvpSPrSP6qbk2YBJeQ-8">
          <mxGeometry relative="1" as="geometry" />
        </mxCell>
        <mxCell id="swormeM2gexrQWOT3scs-2" value="Join Game?" style="shape=rhombus;html=1;dashed=0;whiteSpace=wrap;perimeter=rhombusPerimeter;fillColor=#ffcccc;strokeColor=#36393d;" vertex="1" parent="1">
          <mxGeometry x="680" y="280" width="120" height="80" as="geometry" />
        </mxCell>
        <mxCell id="BjwySYFSNE_aN-RuAXde-28" style="edgeStyle=orthogonalEdgeStyle;rounded=0;orthogonalLoop=1;jettySize=auto;html=1;" edge="1" parent="1" source="swormeM2gexrQWOT3scs-3" target="IxXvpSPrSP6qbk2YBJeQ-3">
          <mxGeometry relative="1" as="geometry" />
        </mxCell>
        <mxCell id="swormeM2gexrQWOT3scs-3" value="Edit Profile?" style="shape=rhombus;html=1;dashed=0;whiteSpace=wrap;perimeter=rhombusPerimeter;fillColor=#ffcccc;strokeColor=#36393d;" vertex="1" parent="1">
          <mxGeometry x="820" y="280" width="120" height="80" as="geometry" />
        </mxCell>
        <mxCell id="T9Cwd15kJEdltrYXPmpO-3" style="edgeStyle=orthogonalEdgeStyle;rounded=0;orthogonalLoop=1;jettySize=auto;html=1;" edge="1" parent="1" source="IuJjc1mCsAfGJQBcyoiD-1" target="T9Cwd15kJEdltrYXPmpO-2">
          <mxGeometry relative="1" as="geometry" />
        </mxCell>
        <mxCell id="IuJjc1mCsAfGJQBcyoiD-1" value="Server" style="shape=cube;whiteSpace=wrap;html=1;boundedLbl=1;backgroundOutline=1;darkOpacity=0.05;darkOpacity2=0.1;fillColor=#eeeeee;strokeColor=#36393d;" vertex="1" parent="1">
          <mxGeometry x="540" y="620" width="120" height="80" as="geometry" />
        </mxCell>
        <mxCell id="BjwySYFSNE_aN-RuAXde-18" style="edgeStyle=orthogonalEdgeStyle;rounded=0;orthogonalLoop=1;jettySize=auto;html=1;" edge="1" parent="1" source="IuJjc1mCsAfGJQBcyoiD-2" target="IxXvpSPrSP6qbk2YBJeQ-2">
          <mxGeometry relative="1" as="geometry" />
        </mxCell>
        <mxCell id="BjwySYFSNE_aN-RuAXde-22" style="edgeStyle=orthogonalEdgeStyle;rounded=0;orthogonalLoop=1;jettySize=auto;html=1;exitX=0;exitY=0.5;exitDx=0;exitDy=0;entryX=0;entryY=0.75;entryDx=0;entryDy=0;" edge="1" parent="1" source="IuJjc1mCsAfGJQBcyoiD-2" target="BjwySYFSNE_aN-RuAXde-1">
          <mxGeometry relative="1" as="geometry">
            <Array as="points">
              <mxPoint x="500" y="410" />
              <mxPoint x="500" y="720" />
              <mxPoint x="860" y="720" />
              <mxPoint x="860" y="485" />
            </Array>
          </mxGeometry>
        </mxCell>
        <mxCell id="IuJjc1mCsAfGJQBcyoiD-2" value="Send request to server" style="rounded=1;arcSize=18;whiteSpace=wrap;html=1;align=center;" vertex="1" parent="1">
          <mxGeometry x="540" y="380" width="120" height="60" as="geometry" />
        </mxCell>
        <mxCell id="BjwySYFSNE_aN-RuAXde-21" style="edgeStyle=orthogonalEdgeStyle;rounded=0;orthogonalLoop=1;jettySize=auto;html=1;" edge="1" parent="1" source="IxXvpSPrSP6qbk2YBJeQ-1" target="BjwySYFSNE_aN-RuAXde-7">
          <mxGeometry relative="1" as="geometry" />
        </mxCell>
        <mxCell id="IxXvpSPrSP6qbk2YBJeQ-1" value="POST" style="shape=ellipse;html=1;dashed=0;whiteSpace=wrap;aspect=fixed;perimeter=ellipsePerimeter;fillColor=#eeeeee;strokeColor=#36393d;" vertex="1" parent="1">
          <mxGeometry x="720" y="550" width="40" height="40" as="geometry" />
        </mxCell>
        <mxCell id="IxXvpSPrSP6qbk2YBJeQ-2" value="GET" style="shape=ellipse;html=1;dashed=0;whiteSpace=wrap;aspect=fixed;perimeter=ellipsePerimeter;fillColor=#eeeeee;strokeColor=#36393d;" vertex="1" parent="1">
          <mxGeometry x="580" y="480" width="40" height="40" as="geometry" />
        </mxCell>
        <mxCell id="7waa6hHAXbH94ccxe9nq-4" style="edgeStyle=orthogonalEdgeStyle;rounded=0;orthogonalLoop=1;jettySize=auto;html=1;" edge="1" parent="1" source="IxXvpSPrSP6qbk2YBJeQ-3" target="7waa6hHAXbH94ccxe9nq-2">
          <mxGeometry relative="1" as="geometry" />
        </mxCell>
        <mxCell id="IxXvpSPrSP6qbk2YBJeQ-3" value="User Page" style="html=1;dashed=0;whiteSpace=wrap;fillColor=#cce5ff;strokeColor=#36393d;" vertex="1" parent="1">
          <mxGeometry x="960" y="290" width="120" height="60" as="geometry" />
        </mxCell>
        <mxCell id="yG1h8HdJMjZUUIjRDg7j-6" style="edgeStyle=orthogonalEdgeStyle;rounded=0;orthogonalLoop=1;jettySize=auto;html=1;" edge="1" parent="1" source="IxXvpSPrSP6qbk2YBJeQ-7" target="0KzH4afc-IWAvHbz_nAd-1">
          <mxGeometry relative="1" as="geometry" />
        </mxCell>
        <mxCell id="IxXvpSPrSP6qbk2YBJeQ-7" value="Join Room" style="rounded=1;arcSize=18;whiteSpace=wrap;html=1;align=center;" vertex="1" parent="1">
          <mxGeometry x="1100" y="540" width="120" height="60" as="geometry" />
        </mxCell>
        <mxCell id="BjwySYFSNE_aN-RuAXde-17" style="edgeStyle=orthogonalEdgeStyle;rounded=0;orthogonalLoop=1;jettySize=auto;html=1;" edge="1" parent="1" source="IxXvpSPrSP6qbk2YBJeQ-8" target="IxXvpSPrSP6qbk2YBJeQ-1">
          <mxGeometry relative="1" as="geometry" />
        </mxCell>
        <mxCell id="BjwySYFSNE_aN-RuAXde-23" style="edgeStyle=orthogonalEdgeStyle;rounded=0;orthogonalLoop=1;jettySize=auto;html=1;entryX=0;entryY=0.25;entryDx=0;entryDy=0;exitX=1;exitY=0.5;exitDx=0;exitDy=0;" edge="1" parent="1" source="IxXvpSPrSP6qbk2YBJeQ-8" target="BjwySYFSNE_aN-RuAXde-1">
          <mxGeometry relative="1" as="geometry">
            <Array as="points">
              <mxPoint x="820" y="410" />
              <mxPoint x="820" y="455" />
            </Array>
          </mxGeometry>
        </mxCell>
        <mxCell id="IxXvpSPrSP6qbk2YBJeQ-8" value="Send request to server" style="rounded=1;arcSize=18;whiteSpace=wrap;html=1;align=center;" vertex="1" parent="1">
          <mxGeometry x="680" y="380" width="120" height="60" as="geometry" />
        </mxCell>
        <mxCell id="BjwySYFSNE_aN-RuAXde-24" style="edgeStyle=orthogonalEdgeStyle;rounded=0;orthogonalLoop=1;jettySize=auto;html=1;entryX=0;entryY=0.5;entryDx=0;entryDy=0;" edge="1" parent="1" source="T9Cwd15kJEdltrYXPmpO-2" target="BjwySYFSNE_aN-RuAXde-1">
          <mxGeometry relative="1" as="geometry" />
        </mxCell>
        <mxCell id="T9Cwd15kJEdltrYXPmpO-2" value="Server &lt;br&gt;Response &lt;br&gt;JSON" style="shape=parallelogram;perimeter=parallelogramPerimeter;whiteSpace=wrap;html=1;dashed=0;fillColor=#ffcccc;strokeColor=#36393d;" vertex="1" parent="1">
          <mxGeometry x="680" y="630" width="120" height="60" as="geometry" />
        </mxCell>
        <mxCell id="BjwySYFSNE_aN-RuAXde-25" style="edgeStyle=orthogonalEdgeStyle;rounded=0;orthogonalLoop=1;jettySize=auto;html=1;" edge="1" parent="1" source="BjwySYFSNE_aN-RuAXde-1" target="BjwySYFSNE_aN-RuAXde-6">
          <mxGeometry relative="1" as="geometry" />
        </mxCell>
        <mxCell id="BjwySYFSNE_aN-RuAXde-1" value="Await JSON Response" style="shape=delay;whiteSpace=wrap;html=1;fillColor=#ffcc99;strokeColor=#36393d;" vertex="1" parent="1">
          <mxGeometry x="880" y="440" width="120" height="60" as="geometry" />
        </mxCell>
        <mxCell id="BjwySYFSNE_aN-RuAXde-26" style="edgeStyle=orthogonalEdgeStyle;rounded=0;orthogonalLoop=1;jettySize=auto;html=1;" edge="1" parent="1" source="BjwySYFSNE_aN-RuAXde-2" target="IxXvpSPrSP6qbk2YBJeQ-7">
          <mxGeometry relative="1" as="geometry" />
        </mxCell>
        <mxCell id="BjwySYFSNE_aN-RuAXde-2" value="Yes" style="shape=ellipse;html=1;dashed=0;whiteSpace=wrap;perimeter=ellipsePerimeter;fillColor=#cdeb8b;strokeColor=#36393d;" vertex="1" parent="1">
          <mxGeometry x="1030" y="550" width="40" height="40" as="geometry" />
        </mxCell>
        <mxCell id="BjwySYFSNE_aN-RuAXde-27" style="edgeStyle=orthogonalEdgeStyle;rounded=0;orthogonalLoop=1;jettySize=auto;html=1;entryX=0;entryY=0.5;entryDx=0;entryDy=0;" edge="1" parent="1" source="BjwySYFSNE_aN-RuAXde-3" target="rEtojGyQbFL76p9ON_u--4">
          <mxGeometry relative="1" as="geometry">
            <Array as="points">
              <mxPoint x="940" y="740" />
              <mxPoint x="470" y="740" />
              <mxPoint x="470" y="180" />
            </Array>
          </mxGeometry>
        </mxCell>
        <mxCell id="BjwySYFSNE_aN-RuAXde-3" value="No" style="shape=ellipse;html=1;dashed=0;whiteSpace=wrap;perimeter=ellipsePerimeter;fillColor=#ffcc99;strokeColor=#36393d;" vertex="1" parent="1">
          <mxGeometry x="920" y="640" width="40" height="40" as="geometry" />
        </mxCell>
        <mxCell id="BjwySYFSNE_aN-RuAXde-4" value="" style="edgeStyle=orthogonalEdgeStyle;rounded=0;orthogonalLoop=1;jettySize=auto;html=1;" edge="1" parent="1" source="BjwySYFSNE_aN-RuAXde-6" target="BjwySYFSNE_aN-RuAXde-2">
          <mxGeometry relative="1" as="geometry" />
        </mxCell>
        <mxCell id="BjwySYFSNE_aN-RuAXde-5" value="" style="edgeStyle=orthogonalEdgeStyle;rounded=0;orthogonalLoop=1;jettySize=auto;html=1;" edge="1" parent="1" source="BjwySYFSNE_aN-RuAXde-6" target="BjwySYFSNE_aN-RuAXde-3">
          <mxGeometry relative="1" as="geometry" />
        </mxCell>
        <mxCell id="BjwySYFSNE_aN-RuAXde-6" value="Contains &lt;br&gt;Room ID?" style="shape=rhombus;html=1;dashed=0;whiteSpace=wrap;perimeter=rhombusPerimeter;fillColor=#ffcccc;strokeColor=#36393d;" vertex="1" parent="1">
          <mxGeometry x="880" y="530" width="120" height="80" as="geometry" />
        </mxCell>
        <mxCell id="BjwySYFSNE_aN-RuAXde-8" value="" style="edgeStyle=orthogonalEdgeStyle;rounded=0;orthogonalLoop=1;jettySize=auto;html=1;" edge="1" parent="1" source="IxXvpSPrSP6qbk2YBJeQ-2" target="BjwySYFSNE_aN-RuAXde-7">
          <mxGeometry relative="1" as="geometry">
            <mxPoint x="580" y="480" as="sourcePoint" />
            <mxPoint x="460" y="520" as="targetPoint" />
          </mxGeometry>
        </mxCell>
        <mxCell id="BjwySYFSNE_aN-RuAXde-9" style="edgeStyle=orthogonalEdgeStyle;rounded=0;orthogonalLoop=1;jettySize=auto;html=1;" edge="1" parent="1" source="BjwySYFSNE_aN-RuAXde-7" target="IuJjc1mCsAfGJQBcyoiD-1">
          <mxGeometry relative="1" as="geometry" />
        </mxCell>
        <mxCell id="BjwySYFSNE_aN-RuAXde-7" value="Request" style="shape=parallelogram;perimeter=parallelogramPerimeter;whiteSpace=wrap;html=1;dashed=0;fillColor=#ffcccc;strokeColor=#36393d;" vertex="1" parent="1">
          <mxGeometry x="540" y="540" width="120" height="60" as="geometry" />
        </mxCell>
        <mxCell id="yG1h8HdJMjZUUIjRDg7j-21" style="edgeStyle=orthogonalEdgeStyle;rounded=0;orthogonalLoop=1;jettySize=auto;html=1;entryX=0;entryY=0.5;entryDx=0;entryDy=0;exitX=0;exitY=0;exitDx=70;exitDy=80;exitPerimeter=0;" edge="1" parent="1" source="csgJjIn2YreueZBpic8D-2" target="yG1h8HdJMjZUUIjRDg7j-18">
          <mxGeometry relative="1" as="geometry">
            <Array as="points">
              <mxPoint x="-290" y="450" />
            </Array>
          </mxGeometry>
        </mxCell>
        <mxCell id="csgJjIn2YreueZBpic8D-2" value="Server" style="shape=cube;whiteSpace=wrap;html=1;boundedLbl=1;backgroundOutline=1;darkOpacity=0.05;darkOpacity2=0.1;fillColor=#eeeeee;strokeColor=#36393d;" vertex="1" parent="1">
          <mxGeometry x="-360" y="300" width="120" height="80" as="geometry" />
        </mxCell>
        <mxCell id="yG1h8HdJMjZUUIjRDg7j-16" style="edgeStyle=orthogonalEdgeStyle;rounded=0;orthogonalLoop=1;jettySize=auto;html=1;entryX=0;entryY=0;entryDx=120;entryDy=50;entryPerimeter=0;" edge="1" parent="1" source="csgJjIn2YreueZBpic8D-3" target="csgJjIn2YreueZBpic8D-2">
          <mxGeometry relative="1" as="geometry" />
        </mxCell>
        <mxCell id="csgJjIn2YreueZBpic8D-3" value="Request" style="shape=parallelogram;perimeter=parallelogramPerimeter;whiteSpace=wrap;html=1;dashed=0;fillColor=#ffcccc;strokeColor=#36393d;" vertex="1" parent="1">
          <mxGeometry x="-220" y="320" width="120" height="60" as="geometry" />
        </mxCell>
        <mxCell id="yG1h8HdJMjZUUIjRDg7j-12" style="edgeStyle=orthogonalEdgeStyle;rounded=0;orthogonalLoop=1;jettySize=auto;html=1;" edge="1" parent="1" source="yG1h8HdJMjZUUIjRDg7j-1" target="-9Mj6utBtVofY7VwkBSp-23">
          <mxGeometry relative="1" as="geometry" />
        </mxCell>
        <mxCell id="yG1h8HdJMjZUUIjRDg7j-1" value="Await JSON Response" style="shape=delay;whiteSpace=wrap;html=1;fillColor=#ffcc99;strokeColor=#36393d;" vertex="1" parent="1">
          <mxGeometry x="130" y="420" width="120" height="60" as="geometry" />
        </mxCell>
        <mxCell id="VTKhUktoMAHeNxav9FCj-2" style="edgeStyle=orthogonalEdgeStyle;rounded=0;orthogonalLoop=1;jettySize=auto;html=1;" edge="1" parent="1" source="yG1h8HdJMjZUUIjRDg7j-3" target="23FveEcpQGQNmcqLa2UB-2">
          <mxGeometry relative="1" as="geometry" />
        </mxCell>
        <mxCell id="yG1h8HdJMjZUUIjRDg7j-3" value="Game" style="shape=cube;whiteSpace=wrap;html=1;boundedLbl=1;backgroundOutline=1;darkOpacity=0.05;darkOpacity2=0.1;fillColor=#eeeeee;strokeColor=#36393d;" vertex="1" parent="1">
          <mxGeometry x="1380" y="640" width="120" height="80" as="geometry" />
        </mxCell>
        <mxCell id="yG1h8HdJMjZUUIjRDg7j-8" style="edgeStyle=orthogonalEdgeStyle;rounded=0;orthogonalLoop=1;jettySize=auto;html=1;" edge="1" parent="1" source="yG1h8HdJMjZUUIjRDg7j-4" target="yG1h8HdJMjZUUIjRDg7j-3">
          <mxGeometry relative="1" as="geometry" />
        </mxCell>
        <mxCell id="yG1h8HdJMjZUUIjRDg7j-4" value="Begin Game" style="rounded=1;arcSize=18;whiteSpace=wrap;html=1;align=center;" vertex="1" parent="1">
          <mxGeometry x="1380" y="540" width="120" height="60" as="geometry" />
        </mxCell>
        <mxCell id="yG1h8HdJMjZUUIjRDg7j-7" style="edgeStyle=orthogonalEdgeStyle;rounded=0;orthogonalLoop=1;jettySize=auto;html=1;" edge="1" parent="1" source="yG1h8HdJMjZUUIjRDg7j-5" target="yG1h8HdJMjZUUIjRDg7j-4">
          <mxGeometry relative="1" as="geometry" />
        </mxCell>
        <mxCell id="yG1h8HdJMjZUUIjRDg7j-5" value="Await Server Game Start Response" style="shape=delay;whiteSpace=wrap;html=1;fillColor=#ffcc99;strokeColor=#36393d;" vertex="1" parent="1">
          <mxGeometry x="1240" y="540" width="120" height="60" as="geometry" />
        </mxCell>
        <mxCell id="yG1h8HdJMjZUUIjRDg7j-20" style="edgeStyle=orthogonalEdgeStyle;rounded=0;orthogonalLoop=1;jettySize=auto;html=1;entryX=0;entryY=0.5;entryDx=0;entryDy=0;" edge="1" parent="1" source="yG1h8HdJMjZUUIjRDg7j-18" target="yG1h8HdJMjZUUIjRDg7j-1">
          <mxGeometry relative="1" as="geometry" />
        </mxCell>
        <mxCell id="yG1h8HdJMjZUUIjRDg7j-18" value="Response" style="shape=parallelogram;perimeter=parallelogramPerimeter;whiteSpace=wrap;html=1;dashed=0;fillColor=#ffcccc;strokeColor=#36393d;" vertex="1" parent="1">
          <mxGeometry x="-230" y="420" width="120" height="60" as="geometry" />
        </mxCell>
        <mxCell id="7waa6hHAXbH94ccxe9nq-1" value="PUT" style="shape=ellipse;html=1;dashed=0;whiteSpace=wrap;aspect=fixed;perimeter=ellipsePerimeter;fillColor=#eeeeee;strokeColor=#36393d;" vertex="1" parent="1">
          <mxGeometry x="1280" y="300" width="40" height="40" as="geometry" />
        </mxCell>
        <mxCell id="7waa6hHAXbH94ccxe9nq-3" style="edgeStyle=orthogonalEdgeStyle;rounded=0;orthogonalLoop=1;jettySize=auto;html=1;" edge="1" parent="1" source="7waa6hHAXbH94ccxe9nq-2" target="7waa6hHAXbH94ccxe9nq-1">
          <mxGeometry relative="1" as="geometry" />
        </mxCell>
        <mxCell id="7waa6hHAXbH94ccxe9nq-2" value="Send request to server" style="rounded=1;arcSize=18;whiteSpace=wrap;html=1;align=center;" vertex="1" parent="1">
          <mxGeometry x="1120" y="290" width="120" height="60" as="geometry" />
        </mxCell>
        <mxCell id="23FveEcpQGQNmcqLa2UB-2" value="Await Game&lt;br&gt;Finished" style="shape=delay;whiteSpace=wrap;html=1;fillColor=#ffcc99;strokeColor=#36393d;" vertex="1" parent="1">
          <mxGeometry x="1380" y="760" width="120" height="60" as="geometry" />
        </mxCell>
        <mxCell id="VTKhUktoMAHeNxav9FCj-1" style="edgeStyle=orthogonalEdgeStyle;rounded=0;orthogonalLoop=1;jettySize=auto;html=1;" edge="1" parent="1" source="0KzH4afc-IWAvHbz_nAd-1" target="yG1h8HdJMjZUUIjRDg7j-5">
          <mxGeometry relative="1" as="geometry" />
        </mxCell>
        <mxCell id="0KzH4afc-IWAvHbz_nAd-1" value="Send Game Start Request" style="rounded=1;arcSize=18;whiteSpace=wrap;html=1;align=center;" vertex="1" parent="1">
          <mxGeometry x="1100" y="620" width="120" height="60" as="geometry" />
        </mxCell>
        <mxCell id="YcuXTBHGw6G8-KwvyZke-1" value="Await server turn message" style="shape=delay;whiteSpace=wrap;html=1;fillColor=#ffcc99;strokeColor=#36393d;" vertex="1" parent="1">
          <mxGeometry x="1520" y="540" width="120" height="60" as="geometry" />
        </mxCell>
      </root>
    </mxGraphModel>
  </diagram>
  <diagram id="DJv0jxX4a2QYaf4EeSXi" name="Server Flow">
    <mxGraphModel dx="1588" dy="815" grid="1" gridSize="10" guides="1" tooltips="1" connect="1" arrows="1" fold="1" page="1" pageScale="1" pageWidth="850" pageHeight="1100" background="none" math="0" shadow="0">
      <root>
        <mxCell id="0" />
        <mxCell id="1" parent="0" />
        <mxCell id="vdSAeEpaXnqjWs-SPLCj-2" style="edgeStyle=orthogonalEdgeStyle;rounded=0;orthogonalLoop=1;jettySize=auto;html=1;" edge="1" parent="1" source="rSZAJtGpIHeI_O9wHv8Y-7" target="NFQsdu2QgwGibdSxPYvm-1">
          <mxGeometry relative="1" as="geometry" />
        </mxCell>
        <mxCell id="rSZAJtGpIHeI_O9wHv8Y-7" value="Server" style="html=1;dashed=0;whiteSpace=wrap;fillColor=#cce5ff;strokeColor=#36393d;" vertex="1" parent="1">
          <mxGeometry x="200" y="400" width="120" height="60" as="geometry" />
        </mxCell>
        <mxCell id="rSZAJtGpIHeI_O9wHv8Y-21" style="edgeStyle=orthogonalEdgeStyle;rounded=0;orthogonalLoop=1;jettySize=auto;html=1;" edge="1" parent="1" source="rSZAJtGpIHeI_O9wHv8Y-12" target="rSZAJtGpIHeI_O9wHv8Y-23">
          <mxGeometry relative="1" as="geometry" />
        </mxCell>
        <mxCell id="rSZAJtGpIHeI_O9wHv8Y-12" value="Client" style="shape=cube;whiteSpace=wrap;html=1;boundedLbl=1;backgroundOutline=1;darkOpacity=0.05;darkOpacity2=0.1;fillColor=#eeeeee;strokeColor=#36393d;" vertex="1" parent="1">
          <mxGeometry x="200" y="220" width="120" height="80" as="geometry" />
        </mxCell>
        <mxCell id="rSZAJtGpIHeI_O9wHv8Y-13" value="Database" style="shape=cube;whiteSpace=wrap;html=1;boundedLbl=1;backgroundOutline=1;darkOpacity=0.05;darkOpacity2=0.1;fillColor=#eeeeee;strokeColor=#36393d;" vertex="1" parent="1">
          <mxGeometry x="960" y="260" width="120" height="80" as="geometry" />
        </mxCell>
        <mxCell id="aI0pBL-q7baWWlbXMguf-7" style="edgeStyle=orthogonalEdgeStyle;rounded=0;orthogonalLoop=1;jettySize=auto;html=1;" edge="1" parent="1" source="NFQsdu2QgwGibdSxPYvm-1" target="aI0pBL-q7baWWlbXMguf-5">
          <mxGeometry relative="1" as="geometry">
            <mxPoint x="480" y="430" as="sourcePoint" />
          </mxGeometry>
        </mxCell>
        <mxCell id="vdSAeEpaXnqjWs-SPLCj-4" style="edgeStyle=orthogonalEdgeStyle;rounded=0;orthogonalLoop=1;jettySize=auto;html=1;" edge="1" parent="1" source="rSZAJtGpIHeI_O9wHv8Y-15" target="rSZAJtGpIHeI_O9wHv8Y-12">
          <mxGeometry relative="1" as="geometry" />
        </mxCell>
        <mxCell id="rSZAJtGpIHeI_O9wHv8Y-15" value="Start" style="html=1;dashed=0;whiteSpace=wrap;shape=mxgraph.dfd.start;fillColor=#ffcc99;strokeColor=#36393d;" vertex="1" parent="1">
          <mxGeometry x="200" y="160" width="120" height="40" as="geometry" />
        </mxCell>
        <mxCell id="rSZAJtGpIHeI_O9wHv8Y-24" style="edgeStyle=orthogonalEdgeStyle;rounded=0;orthogonalLoop=1;jettySize=auto;html=1;" edge="1" parent="1" source="rSZAJtGpIHeI_O9wHv8Y-23" target="rSZAJtGpIHeI_O9wHv8Y-7">
          <mxGeometry relative="1" as="geometry">
            <mxPoint x="360" y="430" as="targetPoint" />
          </mxGeometry>
        </mxCell>
        <mxCell id="rSZAJtGpIHeI_O9wHv8Y-23" value="Request With Headers" style="shape=parallelogram;perimeter=parallelogramPerimeter;whiteSpace=wrap;html=1;dashed=0;fillColor=#ffcccc;strokeColor=#36393d;" vertex="1" parent="1">
          <mxGeometry x="200" y="320" width="120" height="60" as="geometry" />
        </mxCell>
        <mxCell id="aI0pBL-q7baWWlbXMguf-12" style="rounded=0;orthogonalLoop=1;jettySize=auto;html=1;" edge="1" parent="1" source="aI0pBL-q7baWWlbXMguf-5" target="aI0pBL-q7baWWlbXMguf-9">
          <mxGeometry relative="1" as="geometry" />
        </mxCell>
        <mxCell id="aI0pBL-q7baWWlbXMguf-14" style="rounded=0;orthogonalLoop=1;jettySize=auto;html=1;" edge="1" parent="1" source="aI0pBL-q7baWWlbXMguf-5" target="aI0pBL-q7baWWlbXMguf-11">
          <mxGeometry relative="1" as="geometry" />
        </mxCell>
        <mxCell id="MyngPRJaRxH-iwkg3jkW-4" style="rounded=0;orthogonalLoop=1;jettySize=auto;html=1;" edge="1" parent="1" source="aI0pBL-q7baWWlbXMguf-5" target="MyngPRJaRxH-iwkg3jkW-3">
          <mxGeometry relative="1" as="geometry" />
        </mxCell>
        <mxCell id="aI0pBL-q7baWWlbXMguf-5" value="Reroute to correct &lt;br&gt;API controller" style="rounded=1;arcSize=18;whiteSpace=wrap;html=1;align=center;" vertex="1" parent="1">
          <mxGeometry x="520" y="400" width="120" height="60" as="geometry" />
        </mxCell>
        <mxCell id="AnlYJxtvf4MHuCyUNUIw-3" style="rounded=0;orthogonalLoop=1;jettySize=auto;html=1;" edge="1" parent="1" source="aI0pBL-q7baWWlbXMguf-9" target="aI0pBL-q7baWWlbXMguf-16">
          <mxGeometry relative="1" as="geometry" />
        </mxCell>
        <mxCell id="AnlYJxtvf4MHuCyUNUIw-4" style="rounded=0;orthogonalLoop=1;jettySize=auto;html=1;" edge="1" parent="1" source="aI0pBL-q7baWWlbXMguf-9" target="aI0pBL-q7baWWlbXMguf-17">
          <mxGeometry relative="1" as="geometry" />
        </mxCell>
        <mxCell id="AnlYJxtvf4MHuCyUNUIw-5" style="rounded=0;orthogonalLoop=1;jettySize=auto;html=1;exitX=0.5;exitY=0;exitDx=0;exitDy=0;" edge="1" parent="1" source="aI0pBL-q7baWWlbXMguf-9" target="aI0pBL-q7baWWlbXMguf-18">
          <mxGeometry relative="1" as="geometry" />
        </mxCell>
        <mxCell id="AnlYJxtvf4MHuCyUNUIw-11" style="rounded=0;orthogonalLoop=1;jettySize=auto;html=1;" edge="1" parent="1" source="aI0pBL-q7baWWlbXMguf-9" target="aI0pBL-q7baWWlbXMguf-15">
          <mxGeometry relative="1" as="geometry" />
        </mxCell>
        <mxCell id="aI0pBL-q7baWWlbXMguf-9" value="User API Controller" style="html=1;dashed=0;whiteSpace=wrap;fillColor=#cce5ff;strokeColor=#36393d;" vertex="1" parent="1">
          <mxGeometry x="520" y="300" width="120" height="60" as="geometry" />
        </mxCell>
        <mxCell id="reFB4LD9W1QZ9bCgoKWs-4" style="rounded=0;orthogonalLoop=1;jettySize=auto;html=1;exitX=0.5;exitY=1;exitDx=0;exitDy=0;" edge="1" parent="1" source="aI0pBL-q7baWWlbXMguf-11" target="MyngPRJaRxH-iwkg3jkW-7">
          <mxGeometry relative="1" as="geometry" />
        </mxCell>
        <mxCell id="reFB4LD9W1QZ9bCgoKWs-5" style="rounded=0;orthogonalLoop=1;jettySize=auto;html=1;exitX=0.5;exitY=1;exitDx=0;exitDy=0;" edge="1" parent="1" source="aI0pBL-q7baWWlbXMguf-11" target="MyngPRJaRxH-iwkg3jkW-6">
          <mxGeometry relative="1" as="geometry" />
        </mxCell>
        <mxCell id="aI0pBL-q7baWWlbXMguf-11" value="Room API&lt;br&gt;Controller" style="html=1;dashed=0;whiteSpace=wrap;fillColor=#cce5ff;strokeColor=#36393d;" vertex="1" parent="1">
          <mxGeometry x="520" y="500" width="120" height="60" as="geometry" />
        </mxCell>
        <mxCell id="aI0pBL-q7baWWlbXMguf-15" value="POST" style="shape=ellipse;html=1;dashed=0;whiteSpace=wrap;aspect=fixed;perimeter=ellipsePerimeter;fillColor=#eeeeee;strokeColor=#36393d;" vertex="1" parent="1">
          <mxGeometry x="680" y="310" width="40" height="40" as="geometry" />
        </mxCell>
        <mxCell id="aI0pBL-q7baWWlbXMguf-16" value="GET" style="shape=ellipse;html=1;dashed=0;whiteSpace=wrap;aspect=fixed;perimeter=ellipsePerimeter;fillColor=#eeeeee;strokeColor=#36393d;" vertex="1" parent="1">
          <mxGeometry x="680" y="270" width="40" height="40" as="geometry" />
        </mxCell>
        <mxCell id="aI0pBL-q7baWWlbXMguf-17" value="PUT" style="shape=ellipse;html=1;dashed=0;whiteSpace=wrap;aspect=fixed;perimeter=ellipsePerimeter;fillColor=#eeeeee;strokeColor=#36393d;" vertex="1" parent="1">
          <mxGeometry x="680" y="230" width="40" height="40" as="geometry" />
        </mxCell>
        <mxCell id="AnlYJxtvf4MHuCyUNUIw-6" style="rounded=0;orthogonalLoop=1;jettySize=auto;html=1;edgeStyle=orthogonalEdgeStyle;exitX=0.5;exitY=0;exitDx=0;exitDy=0;" edge="1" parent="1" source="aI0pBL-q7baWWlbXMguf-18">
          <mxGeometry relative="1" as="geometry">
            <mxPoint x="580" y="190" as="targetPoint" />
          </mxGeometry>
        </mxCell>
        <mxCell id="aI0pBL-q7baWWlbXMguf-18" value="DEL" style="shape=ellipse;html=1;dashed=0;whiteSpace=wrap;aspect=fixed;perimeter=ellipsePerimeter;fillColor=#eeeeee;strokeColor=#36393d;" vertex="1" parent="1">
          <mxGeometry x="560" y="220" width="40" height="40" as="geometry" />
        </mxCell>
        <mxCell id="aI0pBL-q7baWWlbXMguf-19" value="End" style="html=1;dashed=0;whiteSpace=wrap;shape=mxgraph.dfd.start;fillColor=#ffcc99;strokeColor=#36393d;" vertex="1" parent="1">
          <mxGeometry x="520" y="150" width="120" height="40" as="geometry" />
        </mxCell>
        <mxCell id="MyngPRJaRxH-iwkg3jkW-1" value="Not diagramming the rest of this as this section is already done." style="shape=note;size=20;whiteSpace=wrap;html=1;fillColor=#ffff88;strokeColor=#36393d;" vertex="1" parent="1">
          <mxGeometry x="740" y="230" width="120" height="120" as="geometry" />
        </mxCell>
        <mxCell id="vdSAeEpaXnqjWs-SPLCj-23" style="edgeStyle=orthogonalEdgeStyle;rounded=0;orthogonalLoop=1;jettySize=auto;html=1;" edge="1" parent="1" source="MyngPRJaRxH-iwkg3jkW-3" target="vdSAeEpaXnqjWs-SPLCj-6">
          <mxGeometry relative="1" as="geometry" />
        </mxCell>
        <mxCell id="MyngPRJaRxH-iwkg3jkW-3" value="Game API&lt;br&gt;Controller" style="html=1;dashed=0;whiteSpace=wrap;fillColor=#cce5ff;strokeColor=#36393d;" vertex="1" parent="1">
          <mxGeometry x="720" y="400" width="120" height="60" as="geometry" />
        </mxCell>
        <mxCell id="MyngPRJaRxH-iwkg3jkW-5" value="Room API handles room creation, room joining, room deletion, and when the game starts." style="shape=note;size=20;whiteSpace=wrap;html=1;fillColor=#ffff88;strokeColor=#36393d;" vertex="1" parent="1">
          <mxGeometry x="280" y="600" width="120" height="120" as="geometry" />
        </mxCell>
        <mxCell id="reFB4LD9W1QZ9bCgoKWs-6" style="edgeStyle=orthogonalEdgeStyle;rounded=0;orthogonalLoop=1;jettySize=auto;html=1;exitX=0.5;exitY=1;exitDx=0;exitDy=0;entryX=0.5;entryY=0;entryDx=0;entryDy=0;" edge="1" parent="1" source="MyngPRJaRxH-iwkg3jkW-6" target="reFB4LD9W1QZ9bCgoKWs-2">
          <mxGeometry relative="1" as="geometry" />
        </mxCell>
        <mxCell id="MyngPRJaRxH-iwkg3jkW-6" value="POST" style="shape=ellipse;html=1;dashed=0;whiteSpace=wrap;aspect=fixed;perimeter=ellipsePerimeter;fillColor=#eeeeee;strokeColor=#36393d;" vertex="1" parent="1">
          <mxGeometry x="630" y="600" width="40" height="40" as="geometry" />
        </mxCell>
        <mxCell id="reFB4LD9W1QZ9bCgoKWs-7" style="edgeStyle=orthogonalEdgeStyle;rounded=0;orthogonalLoop=1;jettySize=auto;html=1;exitX=0.5;exitY=1;exitDx=0;exitDy=0;entryX=0.5;entryY=0;entryDx=0;entryDy=0;" edge="1" parent="1" source="MyngPRJaRxH-iwkg3jkW-7" target="reFB4LD9W1QZ9bCgoKWs-1">
          <mxGeometry relative="1" as="geometry" />
        </mxCell>
        <mxCell id="MyngPRJaRxH-iwkg3jkW-7" value="GET" style="shape=ellipse;html=1;dashed=0;whiteSpace=wrap;aspect=fixed;perimeter=ellipsePerimeter;fillColor=#eeeeee;strokeColor=#36393d;" vertex="1" parent="1">
          <mxGeometry x="490" y="600" width="40" height="40" as="geometry" />
        </mxCell>
        <mxCell id="MyngPRJaRxH-iwkg3jkW-8" value="Delete route should not be accessed by users." style="shape=note;size=20;whiteSpace=wrap;html=1;fillColor=#ffff88;strokeColor=#36393d;" vertex="1" parent="1">
          <mxGeometry x="650" y="115" width="120" height="90" as="geometry" />
        </mxCell>
        <mxCell id="FMMIAqfJFF32mB3uUc5x-2" style="edgeStyle=orthogonalEdgeStyle;rounded=0;orthogonalLoop=1;jettySize=auto;html=1;" edge="1" parent="1" source="reFB4LD9W1QZ9bCgoKWs-1" target="NFQsdu2QgwGibdSxPYvm-3">
          <mxGeometry relative="1" as="geometry">
            <mxPoint x="510" y="740" as="targetPoint" />
          </mxGeometry>
        </mxCell>
        <mxCell id="reFB4LD9W1QZ9bCgoKWs-1" value="Route /room/create" style="html=1;dashed=0;whiteSpace=wrap;fillColor=#cce5ff;strokeColor=#36393d;" vertex="1" parent="1">
          <mxGeometry x="450" y="660" width="120" height="60" as="geometry" />
        </mxCell>
        <mxCell id="VVCNhR9ZlVfjBGOmvpL9-12" style="edgeStyle=orthogonalEdgeStyle;rounded=0;orthogonalLoop=1;jettySize=auto;html=1;" edge="1" parent="1" source="reFB4LD9W1QZ9bCgoKWs-2" target="zJLH-3gXj399t-bK991A-4">
          <mxGeometry relative="1" as="geometry" />
        </mxCell>
        <mxCell id="reFB4LD9W1QZ9bCgoKWs-2" value="Route /room/join/:ID" style="html=1;dashed=0;whiteSpace=wrap;fillColor=#cce5ff;strokeColor=#36393d;" vertex="1" parent="1">
          <mxGeometry x="590" y="660" width="120" height="60" as="geometry" />
        </mxCell>
        <mxCell id="FMMIAqfJFF32mB3uUc5x-7" style="edgeStyle=orthogonalEdgeStyle;rounded=0;orthogonalLoop=1;jettySize=auto;html=1;" edge="1" parent="1" source="zJLH-3gXj399t-bK991A-5" target="FMMIAqfJFF32mB3uUc5x-6">
          <mxGeometry relative="1" as="geometry" />
        </mxCell>
        <mxCell id="reFB4LD9W1QZ9bCgoKWs-9" value="Create New Room with API data and params Assign ID" style="rounded=1;arcSize=18;whiteSpace=wrap;html=1;align=center;" vertex="1" parent="1">
          <mxGeometry x="450" y="990" width="120" height="60" as="geometry" />
        </mxCell>
        <mxCell id="FMMIAqfJFF32mB3uUc5x-20" style="edgeStyle=orthogonalEdgeStyle;rounded=0;orthogonalLoop=1;jettySize=auto;html=1;" edge="1" parent="1" source="NFQsdu2QgwGibdSxPYvm-3" target="FMMIAqfJFF32mB3uUc5x-17">
          <mxGeometry relative="1" as="geometry">
            <mxPoint x="510" y="800" as="sourcePoint" />
          </mxGeometry>
        </mxCell>
        <mxCell id="FMMIAqfJFF32mB3uUc5x-5" style="edgeStyle=orthogonalEdgeStyle;rounded=0;orthogonalLoop=1;jettySize=auto;html=1;" edge="1" parent="1" source="FMMIAqfJFF32mB3uUc5x-1" target="reFB4LD9W1QZ9bCgoKWs-9">
          <mxGeometry relative="1" as="geometry" />
        </mxCell>
        <mxCell id="FMMIAqfJFF32mB3uUc5x-1" value="Response" style="shape=parallelogram;perimeter=parallelogramPerimeter;whiteSpace=wrap;html=1;dashed=0;fillColor=#ffcccc;strokeColor=#36393d;" vertex="1" parent="1">
          <mxGeometry x="450" y="910" width="120" height="60" as="geometry" />
        </mxCell>
        <mxCell id="zJLH-3gXj399t-bK991A-2" style="edgeStyle=orthogonalEdgeStyle;rounded=0;orthogonalLoop=1;jettySize=auto;html=1;" edge="1" parent="1" source="FMMIAqfJFF32mB3uUc5x-6" target="zJLH-3gXj399t-bK991A-1">
          <mxGeometry relative="1" as="geometry" />
        </mxCell>
        <mxCell id="FMMIAqfJFF32mB3uUc5x-6" value="Add user ID to room roster" style="rounded=1;arcSize=18;whiteSpace=wrap;html=1;align=center;" vertex="1" parent="1">
          <mxGeometry x="280" y="1080" width="120" height="60" as="geometry" />
        </mxCell>
        <mxCell id="FMMIAqfJFF32mB3uUc5x-21" style="edgeStyle=orthogonalEdgeStyle;rounded=0;orthogonalLoop=1;jettySize=auto;html=1;" edge="1" parent="1" source="FMMIAqfJFF32mB3uUc5x-17" target="FMMIAqfJFF32mB3uUc5x-1">
          <mxGeometry relative="1" as="geometry" />
        </mxCell>
        <mxCell id="FMMIAqfJFF32mB3uUc5x-17" value="Card API Controller" style="shape=cube;whiteSpace=wrap;html=1;boundedLbl=1;backgroundOutline=1;darkOpacity=0.05;darkOpacity2=0.1;fillColor=#eeeeee;strokeColor=#36393d;" vertex="1" parent="1">
          <mxGeometry x="460" y="820" width="100" height="60" as="geometry" />
        </mxCell>
        <mxCell id="vdSAeEpaXnqjWs-SPLCj-8" style="edgeStyle=orthogonalEdgeStyle;rounded=0;orthogonalLoop=1;jettySize=auto;html=1;" edge="1" parent="1" source="FMMIAqfJFF32mB3uUc5x-22" target="vdSAeEpaXnqjWs-SPLCj-7">
          <mxGeometry relative="1" as="geometry" />
        </mxCell>
        <mxCell id="FMMIAqfJFF32mB3uUc5x-22" value="Client&amp;nbsp;" style="shape=cube;whiteSpace=wrap;html=1;boundedLbl=1;backgroundOutline=1;darkOpacity=0.05;darkOpacity2=0.1;fillColor=#eeeeee;strokeColor=#36393d;" vertex="1" parent="1">
          <mxGeometry x="290" y="900" width="100" height="60" as="geometry" />
        </mxCell>
        <mxCell id="zJLH-3gXj399t-bK991A-3" style="edgeStyle=orthogonalEdgeStyle;rounded=0;orthogonalLoop=1;jettySize=auto;html=1;" edge="1" parent="1" source="zJLH-3gXj399t-bK991A-1" target="FMMIAqfJFF32mB3uUc5x-22">
          <mxGeometry relative="1" as="geometry" />
        </mxCell>
        <mxCell id="zJLH-3gXj399t-bK991A-1" value="Respond with room ID" style="rounded=1;arcSize=18;whiteSpace=wrap;html=1;align=center;" vertex="1" parent="1">
          <mxGeometry x="280" y="990" width="120" height="60" as="geometry" />
        </mxCell>
        <mxCell id="zJLH-3gXj399t-bK991A-8" style="edgeStyle=orthogonalEdgeStyle;rounded=0;orthogonalLoop=1;jettySize=auto;html=1;" edge="1" parent="1" source="VVCNhR9ZlVfjBGOmvpL9-1" target="FMMIAqfJFF32mB3uUc5x-6">
          <mxGeometry relative="1" as="geometry">
            <Array as="points">
              <mxPoint x="650" y="1180" />
              <mxPoint x="340" y="1180" />
            </Array>
          </mxGeometry>
        </mxCell>
        <mxCell id="zJLH-3gXj399t-bK991A-4" value="Check room params" style="rounded=1;arcSize=18;whiteSpace=wrap;html=1;align=center;" vertex="1" parent="1">
          <mxGeometry x="590" y="740" width="120" height="60" as="geometry" />
        </mxCell>
        <mxCell id="zJLH-3gXj399t-bK991A-6" value="" style="edgeStyle=orthogonalEdgeStyle;rounded=0;orthogonalLoop=1;jettySize=auto;html=1;" edge="1" parent="1" source="reFB4LD9W1QZ9bCgoKWs-9" target="zJLH-3gXj399t-bK991A-5">
          <mxGeometry relative="1" as="geometry">
            <mxPoint x="510" y="1050" as="sourcePoint" />
            <mxPoint x="510" y="1160" as="targetPoint" />
          </mxGeometry>
        </mxCell>
        <mxCell id="zJLH-3gXj399t-bK991A-5" value="Assign room ID" style="rounded=1;arcSize=18;whiteSpace=wrap;html=1;align=center;" vertex="1" parent="1">
          <mxGeometry x="450" y="1080" width="120" height="60" as="geometry" />
        </mxCell>
        <mxCell id="VVCNhR9ZlVfjBGOmvpL9-9" style="edgeStyle=orthogonalEdgeStyle;rounded=0;orthogonalLoop=1;jettySize=auto;html=1;" edge="1" parent="1" source="VVCNhR9ZlVfjBGOmvpL9-2" target="VVCNhR9ZlVfjBGOmvpL9-8">
          <mxGeometry relative="1" as="geometry" />
        </mxCell>
        <mxCell id="VVCNhR9ZlVfjBGOmvpL9-2" value="No" style="shape=ellipse;html=1;dashed=0;whiteSpace=wrap;perimeter=ellipsePerimeter;fillColor=#ffcc99;strokeColor=#36393d;" vertex="1" parent="1">
          <mxGeometry x="740" y="920" width="40" height="40" as="geometry" />
        </mxCell>
        <mxCell id="VVCNhR9ZlVfjBGOmvpL9-3" value="" style="edgeStyle=orthogonalEdgeStyle;rounded=0;orthogonalLoop=1;jettySize=auto;html=1;" edge="1" parent="1" source="VVCNhR9ZlVfjBGOmvpL9-5" target="VVCNhR9ZlVfjBGOmvpL9-1">
          <mxGeometry relative="1" as="geometry" />
        </mxCell>
        <mxCell id="VVCNhR9ZlVfjBGOmvpL9-4" value="" style="edgeStyle=orthogonalEdgeStyle;rounded=0;orthogonalLoop=1;jettySize=auto;html=1;" edge="1" parent="1" source="VVCNhR9ZlVfjBGOmvpL9-5" target="VVCNhR9ZlVfjBGOmvpL9-2">
          <mxGeometry relative="1" as="geometry" />
        </mxCell>
        <mxCell id="VVCNhR9ZlVfjBGOmvpL9-6" value="" style="edgeStyle=orthogonalEdgeStyle;rounded=0;orthogonalLoop=1;jettySize=auto;html=1;" edge="1" parent="1" source="zJLH-3gXj399t-bK991A-4" target="VVCNhR9ZlVfjBGOmvpL9-5">
          <mxGeometry relative="1" as="geometry">
            <mxPoint x="650" y="800" as="sourcePoint" />
            <mxPoint x="340" y="1140" as="targetPoint" />
            <Array as="points" />
          </mxGeometry>
        </mxCell>
        <mxCell id="VVCNhR9ZlVfjBGOmvpL9-5" value="Can join?" style="shape=rhombus;html=1;dashed=0;whiteSpace=wrap;perimeter=rhombusPerimeter;fillColor=#ffcccc;strokeColor=#36393d;" vertex="1" parent="1">
          <mxGeometry x="590" y="900" width="120" height="80" as="geometry" />
        </mxCell>
        <mxCell id="VVCNhR9ZlVfjBGOmvpL9-1" value="Yes" style="shape=ellipse;html=1;dashed=0;whiteSpace=wrap;perimeter=ellipsePerimeter;fillColor=#cdeb8b;strokeColor=#36393d;" vertex="1" parent="1">
          <mxGeometry x="630" y="1020" width="40" height="40" as="geometry" />
        </mxCell>
        <mxCell id="VVCNhR9ZlVfjBGOmvpL9-8" value="End" style="html=1;dashed=0;whiteSpace=wrap;shape=mxgraph.dfd.start;fillColor=#ffcc99;strokeColor=#36393d;" vertex="1" parent="1">
          <mxGeometry x="700" y="990" width="120" height="40" as="geometry" />
        </mxCell>
        <mxCell id="NFQsdu2QgwGibdSxPYvm-1" value="Await Request" style="shape=delay;whiteSpace=wrap;html=1;fillColor=#ffcc99;strokeColor=#36393d;" vertex="1" parent="1">
          <mxGeometry x="360" y="400" width="120" height="60" as="geometry" />
        </mxCell>
        <mxCell id="NFQsdu2QgwGibdSxPYvm-3" value="Await response from Cards API" style="shape=delay;whiteSpace=wrap;html=1;fillColor=#ffcc99;strokeColor=#36393d;" vertex="1" parent="1">
          <mxGeometry x="450" y="740" width="120" height="60" as="geometry" />
        </mxCell>
        <mxCell id="zHnWTy5V4GqGZ1UCIdnW-1" value="Initialize Account" style="rounded=1;arcSize=18;whiteSpace=wrap;html=1;align=center;" vertex="1" parent="1">
          <mxGeometry x="780" y="160" width="120" height="60" as="geometry" />
        </mxCell>
        <mxCell id="JNjTa4RV1d8yBO9caU0E-1" style="edgeStyle=orthogonalEdgeStyle;rounded=0;orthogonalLoop=1;jettySize=auto;html=1;" edge="1" parent="1" source="vdSAeEpaXnqjWs-SPLCj-6" target="vdSAeEpaXnqjWs-SPLCj-40">
          <mxGeometry relative="1" as="geometry" />
        </mxCell>
        <mxCell id="vdSAeEpaXnqjWs-SPLCj-6" value="Check room params" style="rounded=1;arcSize=18;whiteSpace=wrap;html=1;align=center;" vertex="1" parent="1">
          <mxGeometry x="860" y="400" width="120" height="60" as="geometry" />
        </mxCell>
        <mxCell id="vdSAeEpaXnqjWs-SPLCj-7" value="End" style="html=1;dashed=0;whiteSpace=wrap;shape=mxgraph.dfd.start;fillColor=#ffcc99;strokeColor=#36393d;" vertex="1" parent="1">
          <mxGeometry x="280" y="840" width="120" height="40" as="geometry" />
        </mxCell>
        <mxCell id="vdSAeEpaXnqjWs-SPLCj-25" style="edgeStyle=orthogonalEdgeStyle;rounded=0;orthogonalLoop=1;jettySize=auto;html=1;" edge="1" parent="1" source="vdSAeEpaXnqjWs-SPLCj-9" target="vdSAeEpaXnqjWs-SPLCj-10">
          <mxGeometry relative="1" as="geometry" />
        </mxCell>
        <mxCell id="vdSAeEpaXnqjWs-SPLCj-9" value="Select starting user" style="rounded=1;arcSize=18;whiteSpace=wrap;html=1;align=center;" vertex="1" parent="1">
          <mxGeometry x="1000" y="640" width="120" height="60" as="geometry" />
        </mxCell>
        <mxCell id="vdSAeEpaXnqjWs-SPLCj-26" style="edgeStyle=orthogonalEdgeStyle;rounded=0;orthogonalLoop=1;jettySize=auto;html=1;" edge="1" parent="1" source="vdSAeEpaXnqjWs-SPLCj-10" target="vdSAeEpaXnqjWs-SPLCj-18">
          <mxGeometry relative="1" as="geometry" />
        </mxCell>
        <mxCell id="vdSAeEpaXnqjWs-SPLCj-10" value="Await message from any client" style="shape=delay;whiteSpace=wrap;html=1;fillColor=#ffcc99;strokeColor=#36393d;" vertex="1" parent="1">
          <mxGeometry x="1140" y="640" width="120" height="60" as="geometry" />
        </mxCell>
        <mxCell id="vdSAeEpaXnqjWs-SPLCj-32" style="edgeStyle=orthogonalEdgeStyle;rounded=0;orthogonalLoop=1;jettySize=auto;html=1;" edge="1" parent="1" source="vdSAeEpaXnqjWs-SPLCj-15" target="vdSAeEpaXnqjWs-SPLCj-31">
          <mxGeometry relative="1" as="geometry" />
        </mxCell>
        <mxCell id="vdSAeEpaXnqjWs-SPLCj-15" value="No" style="shape=ellipse;html=1;dashed=0;whiteSpace=wrap;perimeter=ellipsePerimeter;fillColor=#ffcc99;strokeColor=#36393d;" vertex="1" parent="1">
          <mxGeometry x="1320" y="740" width="40" height="40" as="geometry" />
        </mxCell>
        <mxCell id="vdSAeEpaXnqjWs-SPLCj-16" value="" style="edgeStyle=orthogonalEdgeStyle;rounded=0;orthogonalLoop=1;jettySize=auto;html=1;" edge="1" parent="1" source="vdSAeEpaXnqjWs-SPLCj-18" target="vdSAeEpaXnqjWs-SPLCj-19">
          <mxGeometry relative="1" as="geometry" />
        </mxCell>
        <mxCell id="vdSAeEpaXnqjWs-SPLCj-17" value="" style="edgeStyle=orthogonalEdgeStyle;rounded=0;orthogonalLoop=1;jettySize=auto;html=1;" edge="1" parent="1" source="vdSAeEpaXnqjWs-SPLCj-18" target="vdSAeEpaXnqjWs-SPLCj-15">
          <mxGeometry relative="1" as="geometry" />
        </mxCell>
        <mxCell id="vdSAeEpaXnqjWs-SPLCj-18" value="Is Client Current User?" style="shape=rhombus;html=1;dashed=0;whiteSpace=wrap;perimeter=rhombusPerimeter;fillColor=#ffcccc;strokeColor=#36393d;" vertex="1" parent="1">
          <mxGeometry x="1280" y="630" width="120" height="80" as="geometry" />
        </mxCell>
        <mxCell id="SnG5d2U3oj5mJRZvNG6G-1" style="edgeStyle=orthogonalEdgeStyle;rounded=0;orthogonalLoop=1;jettySize=auto;html=1;" edge="1" parent="1" source="vdSAeEpaXnqjWs-SPLCj-19" target="vdSAeEpaXnqjWs-SPLCj-38">
          <mxGeometry relative="1" as="geometry" />
        </mxCell>
        <mxCell id="vdSAeEpaXnqjWs-SPLCj-19" value="Yes" style="shape=ellipse;html=1;dashed=0;whiteSpace=wrap;perimeter=ellipsePerimeter;fillColor=#cdeb8b;strokeColor=#36393d;" vertex="1" parent="1">
          <mxGeometry x="1440" y="650" width="40" height="40" as="geometry" />
        </mxCell>
        <mxCell id="vdSAeEpaXnqjWs-SPLCj-29" style="edgeStyle=orthogonalEdgeStyle;rounded=0;orthogonalLoop=1;jettySize=auto;html=1;" edge="1" parent="1" source="vdSAeEpaXnqjWs-SPLCj-21" target="vdSAeEpaXnqjWs-SPLCj-22">
          <mxGeometry relative="1" as="geometry" />
        </mxCell>
        <mxCell id="vdSAeEpaXnqjWs-SPLCj-21" value="Client&amp;nbsp;" style="shape=cube;whiteSpace=wrap;html=1;boundedLbl=1;backgroundOutline=1;darkOpacity=0.05;darkOpacity2=0.1;fillColor=#eeeeee;strokeColor=#36393d;" vertex="1" parent="1">
          <mxGeometry x="880" y="720" width="100" height="60" as="geometry" />
        </mxCell>
        <mxCell id="vdSAeEpaXnqjWs-SPLCj-30" style="edgeStyle=orthogonalEdgeStyle;rounded=0;orthogonalLoop=1;jettySize=auto;html=1;entryX=0.25;entryY=1;entryDx=0;entryDy=0;" edge="1" parent="1" source="vdSAeEpaXnqjWs-SPLCj-22" target="vdSAeEpaXnqjWs-SPLCj-10">
          <mxGeometry relative="1" as="geometry" />
        </mxCell>
        <mxCell id="vdSAeEpaXnqjWs-SPLCj-22" value="POST Request" style="shape=parallelogram;perimeter=parallelogramPerimeter;whiteSpace=wrap;html=1;dashed=0;fillColor=#ffcccc;strokeColor=#36393d;" vertex="1" parent="1">
          <mxGeometry x="1000" y="720" width="120" height="60" as="geometry" />
        </mxCell>
        <mxCell id="vdSAeEpaXnqjWs-SPLCj-33" style="edgeStyle=orthogonalEdgeStyle;rounded=0;orthogonalLoop=1;jettySize=auto;html=1;entryX=0.75;entryY=1;entryDx=0;entryDy=0;" edge="1" parent="1" source="vdSAeEpaXnqjWs-SPLCj-31" target="vdSAeEpaXnqjWs-SPLCj-10">
          <mxGeometry relative="1" as="geometry" />
        </mxCell>
        <mxCell id="vdSAeEpaXnqjWs-SPLCj-31" value="Send reject response message to client" style="rounded=1;arcSize=18;whiteSpace=wrap;html=1;align=center;" vertex="1" parent="1">
          <mxGeometry x="1280" y="800" width="120" height="60" as="geometry" />
        </mxCell>
        <mxCell id="vdSAeEpaXnqjWs-SPLCj-34" style="edgeStyle=orthogonalEdgeStyle;rounded=0;orthogonalLoop=1;jettySize=auto;html=1;entryX=0;entryY=0;entryDx=60;entryDy=60;entryPerimeter=0;" edge="1" parent="1" source="vdSAeEpaXnqjWs-SPLCj-35" target="vdSAeEpaXnqjWs-SPLCj-21">
          <mxGeometry relative="1" as="geometry" />
        </mxCell>
        <mxCell id="vdSAeEpaXnqjWs-SPLCj-36" value="" style="edgeStyle=orthogonalEdgeStyle;rounded=0;orthogonalLoop=1;jettySize=auto;html=1;entryX=1;entryY=0.5;entryDx=0;entryDy=0;" edge="1" parent="1" source="vdSAeEpaXnqjWs-SPLCj-31" target="vdSAeEpaXnqjWs-SPLCj-35">
          <mxGeometry relative="1" as="geometry">
            <mxPoint x="1280" y="830" as="sourcePoint" />
            <mxPoint x="940" y="780" as="targetPoint" />
          </mxGeometry>
        </mxCell>
        <mxCell id="vdSAeEpaXnqjWs-SPLCj-35" value="Response" style="shape=parallelogram;perimeter=parallelogramPerimeter;whiteSpace=wrap;html=1;dashed=0;fillColor=#ffcccc;strokeColor=#36393d;" vertex="1" parent="1">
          <mxGeometry x="1000" y="800" width="120" height="60" as="geometry" />
        </mxCell>
        <mxCell id="SnG5d2U3oj5mJRZvNG6G-22" style="edgeStyle=orthogonalEdgeStyle;rounded=0;orthogonalLoop=1;jettySize=auto;html=1;" edge="1" parent="1" source="vdSAeEpaXnqjWs-SPLCj-38" target="SnG5d2U3oj5mJRZvNG6G-8">
          <mxGeometry relative="1" as="geometry" />
        </mxCell>
        <mxCell id="vdSAeEpaXnqjWs-SPLCj-38" value="Process request" style="rounded=1;arcSize=18;whiteSpace=wrap;html=1;align=center;" vertex="1" parent="1">
          <mxGeometry x="1520" y="640" width="120" height="60" as="geometry" />
        </mxCell>
        <mxCell id="JNjTa4RV1d8yBO9caU0E-2" style="edgeStyle=orthogonalEdgeStyle;rounded=0;orthogonalLoop=1;jettySize=auto;html=1;" edge="1" parent="1" source="vdSAeEpaXnqjWs-SPLCj-40" target="vdSAeEpaXnqjWs-SPLCj-9">
          <mxGeometry relative="1" as="geometry" />
        </mxCell>
        <mxCell id="JNjTa4RV1d8yBO9caU0E-12" style="edgeStyle=orthogonalEdgeStyle;rounded=0;orthogonalLoop=1;jettySize=auto;html=1;" edge="1" parent="1" source="vdSAeEpaXnqjWs-SPLCj-40" target="JNjTa4RV1d8yBO9caU0E-6">
          <mxGeometry relative="1" as="geometry" />
        </mxCell>
        <mxCell id="SnG5d2U3oj5mJRZvNG6G-13" style="edgeStyle=orthogonalEdgeStyle;rounded=0;orthogonalLoop=1;jettySize=auto;html=1;entryX=0;entryY=0.5;entryDx=0;entryDy=0;" edge="1" parent="1" source="vdSAeEpaXnqjWs-SPLCj-40" target="SnG5d2U3oj5mJRZvNG6G-10">
          <mxGeometry relative="1" as="geometry">
            <Array as="points">
              <mxPoint x="1060" y="550" />
            </Array>
          </mxGeometry>
        </mxCell>
        <mxCell id="vdSAeEpaXnqjWs-SPLCj-40" value="Await game start request from all connected clients" style="shape=delay;whiteSpace=wrap;html=1;fillColor=#ffcc99;strokeColor=#36393d;" vertex="1" parent="1">
          <mxGeometry x="1000" y="400" width="120" height="60" as="geometry" />
        </mxCell>
        <mxCell id="JNjTa4RV1d8yBO9caU0E-11" style="edgeStyle=orthogonalEdgeStyle;rounded=0;orthogonalLoop=1;jettySize=auto;html=1;" edge="1" parent="1" source="JNjTa4RV1d8yBO9caU0E-3" target="JNjTa4RV1d8yBO9caU0E-9">
          <mxGeometry relative="1" as="geometry" />
        </mxCell>
        <mxCell id="JNjTa4RV1d8yBO9caU0E-3" value="No" style="shape=ellipse;html=1;dashed=0;whiteSpace=wrap;perimeter=ellipsePerimeter;fillColor=#ffcc99;strokeColor=#36393d;" vertex="1" parent="1">
          <mxGeometry x="1200" y="320" width="40" height="40" as="geometry" />
        </mxCell>
        <mxCell id="JNjTa4RV1d8yBO9caU0E-4" value="" style="edgeStyle=orthogonalEdgeStyle;rounded=0;orthogonalLoop=1;jettySize=auto;html=1;" edge="1" parent="1" source="JNjTa4RV1d8yBO9caU0E-6" target="JNjTa4RV1d8yBO9caU0E-7">
          <mxGeometry relative="1" as="geometry" />
        </mxCell>
        <mxCell id="JNjTa4RV1d8yBO9caU0E-5" value="" style="edgeStyle=orthogonalEdgeStyle;rounded=0;orthogonalLoop=1;jettySize=auto;html=1;" edge="1" parent="1" source="JNjTa4RV1d8yBO9caU0E-6" target="JNjTa4RV1d8yBO9caU0E-3">
          <mxGeometry relative="1" as="geometry" />
        </mxCell>
        <mxCell id="JNjTa4RV1d8yBO9caU0E-6" value="All clients sent request?" style="shape=rhombus;html=1;dashed=0;whiteSpace=wrap;perimeter=rhombusPerimeter;fillColor=#ffcccc;strokeColor=#36393d;" vertex="1" parent="1">
          <mxGeometry x="1160" y="390" width="120" height="80" as="geometry" />
        </mxCell>
        <mxCell id="JNjTa4RV1d8yBO9caU0E-7" value="Yes" style="shape=ellipse;html=1;dashed=0;whiteSpace=wrap;perimeter=ellipsePerimeter;fillColor=#cdeb8b;strokeColor=#36393d;" vertex="1" parent="1">
          <mxGeometry x="1310" y="410" width="40" height="40" as="geometry" />
        </mxCell>
        <mxCell id="JNjTa4RV1d8yBO9caU0E-8" value="End" style="html=1;dashed=0;whiteSpace=wrap;shape=mxgraph.dfd.start;fillColor=#ffcc99;strokeColor=#36393d;" vertex="1" parent="1">
          <mxGeometry x="1160" y="150" width="120" height="40" as="geometry" />
        </mxCell>
        <mxCell id="JNjTa4RV1d8yBO9caU0E-10" style="edgeStyle=orthogonalEdgeStyle;rounded=0;orthogonalLoop=1;jettySize=auto;html=1;" edge="1" parent="1" source="JNjTa4RV1d8yBO9caU0E-9" target="JNjTa4RV1d8yBO9caU0E-8">
          <mxGeometry relative="1" as="geometry" />
        </mxCell>
        <mxCell id="JNjTa4RV1d8yBO9caU0E-9" value="Close Room" style="rounded=1;arcSize=18;whiteSpace=wrap;html=1;align=center;" vertex="1" parent="1">
          <mxGeometry x="1160" y="230" width="120" height="60" as="geometry" />
        </mxCell>
        <mxCell id="SnG5d2U3oj5mJRZvNG6G-4" style="edgeStyle=orthogonalEdgeStyle;rounded=0;orthogonalLoop=1;jettySize=auto;html=1;entryX=0.5;entryY=1;entryDx=0;entryDy=0;" edge="1" parent="1" source="SnG5d2U3oj5mJRZvNG6G-2" target="vdSAeEpaXnqjWs-SPLCj-35">
          <mxGeometry relative="1" as="geometry">
            <Array as="points">
              <mxPoint x="1580" y="880" />
              <mxPoint x="1060" y="880" />
            </Array>
          </mxGeometry>
        </mxCell>
        <mxCell id="SnG5d2U3oj5mJRZvNG6G-2" value="Return updated Game state" style="rounded=1;arcSize=18;whiteSpace=wrap;html=1;align=center;" vertex="1" parent="1">
          <mxGeometry x="1520" y="850" width="120" height="60" as="geometry" />
        </mxCell>
        <mxCell id="SnG5d2U3oj5mJRZvNG6G-23" style="edgeStyle=orthogonalEdgeStyle;rounded=0;orthogonalLoop=1;jettySize=auto;html=1;" edge="1" parent="1" source="SnG5d2U3oj5mJRZvNG6G-5" target="SnG5d2U3oj5mJRZvNG6G-2">
          <mxGeometry relative="1" as="geometry">
            <Array as="points">
              <mxPoint x="1740" y="880" />
            </Array>
          </mxGeometry>
        </mxCell>
        <mxCell id="SnG5d2U3oj5mJRZvNG6G-5" value="No" style="shape=ellipse;html=1;dashed=0;whiteSpace=wrap;perimeter=ellipsePerimeter;fillColor=#ffcc99;strokeColor=#36393d;" vertex="1" parent="1">
          <mxGeometry x="1720" y="740" width="40" height="40" as="geometry" />
        </mxCell>
        <mxCell id="SnG5d2U3oj5mJRZvNG6G-6" value="" style="edgeStyle=orthogonalEdgeStyle;rounded=0;orthogonalLoop=1;jettySize=auto;html=1;" edge="1" parent="1" source="SnG5d2U3oj5mJRZvNG6G-8" target="SnG5d2U3oj5mJRZvNG6G-9">
          <mxGeometry relative="1" as="geometry" />
        </mxCell>
        <mxCell id="SnG5d2U3oj5mJRZvNG6G-7" value="" style="edgeStyle=orthogonalEdgeStyle;rounded=0;orthogonalLoop=1;jettySize=auto;html=1;" edge="1" parent="1" source="SnG5d2U3oj5mJRZvNG6G-8" target="SnG5d2U3oj5mJRZvNG6G-5">
          <mxGeometry relative="1" as="geometry" />
        </mxCell>
        <mxCell id="SnG5d2U3oj5mJRZvNG6G-8" value="Game Finished" style="shape=rhombus;html=1;dashed=0;whiteSpace=wrap;perimeter=rhombusPerimeter;fillColor=#ffcccc;strokeColor=#36393d;" vertex="1" parent="1">
          <mxGeometry x="1680" y="630" width="120" height="80" as="geometry" />
        </mxCell>
        <mxCell id="SnG5d2U3oj5mJRZvNG6G-28" style="edgeStyle=orthogonalEdgeStyle;rounded=0;orthogonalLoop=1;jettySize=auto;html=1;" edge="1" parent="1" source="SnG5d2U3oj5mJRZvNG6G-9" target="SnG5d2U3oj5mJRZvNG6G-24">
          <mxGeometry relative="1" as="geometry" />
        </mxCell>
        <mxCell id="SnG5d2U3oj5mJRZvNG6G-9" value="Yes" style="shape=ellipse;html=1;dashed=0;whiteSpace=wrap;perimeter=ellipsePerimeter;fillColor=#cdeb8b;strokeColor=#36393d;" vertex="1" parent="1">
          <mxGeometry x="1820" y="650" width="40" height="40" as="geometry" />
        </mxCell>
        <mxCell id="SnG5d2U3oj5mJRZvNG6G-12" style="edgeStyle=orthogonalEdgeStyle;rounded=0;orthogonalLoop=1;jettySize=auto;html=1;" edge="1" parent="1" source="SnG5d2U3oj5mJRZvNG6G-10" target="SnG5d2U3oj5mJRZvNG6G-11">
          <mxGeometry relative="1" as="geometry" />
        </mxCell>
        <mxCell id="SnG5d2U3oj5mJRZvNG6G-10" value="Await update game state request" style="shape=delay;whiteSpace=wrap;html=1;fillColor=#ffcc99;strokeColor=#36393d;" vertex="1" parent="1">
          <mxGeometry x="1140" y="520" width="120" height="60" as="geometry" />
        </mxCell>
        <mxCell id="SnG5d2U3oj5mJRZvNG6G-20" style="edgeStyle=orthogonalEdgeStyle;rounded=0;orthogonalLoop=1;jettySize=auto;html=1;" edge="1" parent="1" source="SnG5d2U3oj5mJRZvNG6G-11" target="SnG5d2U3oj5mJRZvNG6G-19">
          <mxGeometry relative="1" as="geometry" />
        </mxCell>
        <mxCell id="SnG5d2U3oj5mJRZvNG6G-21" style="edgeStyle=orthogonalEdgeStyle;rounded=0;orthogonalLoop=1;jettySize=auto;html=1;entryX=0.5;entryY=0;entryDx=0;entryDy=0;" edge="1" parent="1" source="SnG5d2U3oj5mJRZvNG6G-11" target="SnG5d2U3oj5mJRZvNG6G-10">
          <mxGeometry relative="1" as="geometry">
            <Array as="points">
              <mxPoint x="1340" y="500" />
              <mxPoint x="1200" y="500" />
            </Array>
          </mxGeometry>
        </mxCell>
        <mxCell id="SnG5d2U3oj5mJRZvNG6G-11" value="Return current game state" style="rounded=1;arcSize=18;whiteSpace=wrap;html=1;align=center;" vertex="1" parent="1">
          <mxGeometry x="1280" y="520" width="120" height="60" as="geometry" />
        </mxCell>
        <mxCell id="SnG5d2U3oj5mJRZvNG6G-15" value="" style="verticalLabelPosition=bottom;verticalAlign=top;html=1;shape=mxgraph.flowchart.parallel_mode;pointerEvents=1" vertex="1" parent="1">
          <mxGeometry x="1145" y="590" width="95" height="40" as="geometry" />
        </mxCell>
        <mxCell id="SnG5d2U3oj5mJRZvNG6G-17" value="Client&amp;nbsp;" style="shape=cube;whiteSpace=wrap;html=1;boundedLbl=1;backgroundOutline=1;darkOpacity=0.05;darkOpacity2=0.1;fillColor=#eeeeee;strokeColor=#36393d;" vertex="1" parent="1">
          <mxGeometry x="1590" y="520" width="100" height="60" as="geometry" />
        </mxCell>
        <mxCell id="SnG5d2U3oj5mJRZvNG6G-18" style="edgeStyle=orthogonalEdgeStyle;rounded=0;orthogonalLoop=1;jettySize=auto;html=1;" edge="1" parent="1" source="SnG5d2U3oj5mJRZvNG6G-19" target="SnG5d2U3oj5mJRZvNG6G-17">
          <mxGeometry relative="1" as="geometry" />
        </mxCell>
        <mxCell id="SnG5d2U3oj5mJRZvNG6G-19" value="Response" style="shape=parallelogram;perimeter=parallelogramPerimeter;whiteSpace=wrap;html=1;dashed=0;fillColor=#ffcccc;strokeColor=#36393d;" vertex="1" parent="1">
          <mxGeometry x="1430" y="520" width="120" height="60" as="geometry" />
        </mxCell>
        <mxCell id="SnG5d2U3oj5mJRZvNG6G-27" style="edgeStyle=orthogonalEdgeStyle;rounded=0;orthogonalLoop=1;jettySize=auto;html=1;" edge="1" parent="1" source="SnG5d2U3oj5mJRZvNG6G-24" target="SnG5d2U3oj5mJRZvNG6G-25">
          <mxGeometry relative="1" as="geometry" />
        </mxCell>
        <mxCell id="SnG5d2U3oj5mJRZvNG6G-24" value="End game sequence" style="rounded=1;arcSize=18;whiteSpace=wrap;html=1;align=center;" vertex="1" parent="1">
          <mxGeometry x="1880" y="640" width="120" height="60" as="geometry" />
        </mxCell>
        <mxCell id="SnG5d2U3oj5mJRZvNG6G-29" style="edgeStyle=orthogonalEdgeStyle;rounded=0;orthogonalLoop=1;jettySize=auto;html=1;" edge="1" parent="1" source="SnG5d2U3oj5mJRZvNG6G-25" target="JNjTa4RV1d8yBO9caU0E-9">
          <mxGeometry relative="1" as="geometry">
            <Array as="points">
              <mxPoint x="2040" y="750" />
              <mxPoint x="2040" y="260" />
            </Array>
          </mxGeometry>
        </mxCell>
        <mxCell id="SnG5d2U3oj5mJRZvNG6G-25" value="Update all users on database" style="rounded=1;arcSize=18;whiteSpace=wrap;html=1;align=center;" vertex="1" parent="1">
          <mxGeometry x="1880" y="720" width="120" height="60" as="geometry" />
        </mxCell>
      </root>
    </mxGraphModel>
  </diagram>
  <diagram id="Jo6ndLREvipe28cDcqzU" name="Gameplay Flow">
    <mxGraphModel dx="1214" dy="1724" grid="1" gridSize="10" guides="1" tooltips="1" connect="1" arrows="1" fold="1" page="1" pageScale="1" pageWidth="850" pageHeight="1100" math="0" shadow="0">
      <root>
        <mxCell id="0" />
        <mxCell id="1" parent="0" />
        <mxCell id="OvgkeByuIe_Kdo7EQXN--1" value="Process" style="rounded=1;arcSize=18;whiteSpace=wrap;html=1;align=center;" vertex="1" parent="1">
          <mxGeometry x="40" y="110" width="120" height="60" as="geometry" />
        </mxCell>
        <mxCell id="OvgkeByuIe_Kdo7EQXN--2" value="Yes" style="shape=ellipse;html=1;dashed=0;whiteSpace=wrap;perimeter=ellipsePerimeter;fillColor=#cdeb8b;strokeColor=#36393d;" vertex="1" parent="1">
          <mxGeometry x="310" y="90" width="40" height="40" as="geometry" />
        </mxCell>
        <mxCell id="OvgkeByuIe_Kdo7EQXN--3" value="No" style="shape=ellipse;html=1;dashed=0;whiteSpace=wrap;perimeter=ellipsePerimeter;fillColor=#ffcc99;strokeColor=#36393d;" vertex="1" parent="1">
          <mxGeometry x="210" y="170" width="40" height="40" as="geometry" />
        </mxCell>
        <mxCell id="OvgkeByuIe_Kdo7EQXN--4" value="" style="edgeStyle=orthogonalEdgeStyle;rounded=0;orthogonalLoop=1;jettySize=auto;html=1;" edge="1" parent="1" source="OvgkeByuIe_Kdo7EQXN--6" target="OvgkeByuIe_Kdo7EQXN--2">
          <mxGeometry relative="1" as="geometry" />
        </mxCell>
        <mxCell id="OvgkeByuIe_Kdo7EQXN--5" value="" style="edgeStyle=orthogonalEdgeStyle;rounded=0;orthogonalLoop=1;jettySize=auto;html=1;" edge="1" parent="1" source="OvgkeByuIe_Kdo7EQXN--6" target="OvgkeByuIe_Kdo7EQXN--3">
          <mxGeometry relative="1" as="geometry" />
        </mxCell>
        <mxCell id="OvgkeByuIe_Kdo7EQXN--6" value="Question?" style="shape=rhombus;html=1;dashed=0;whiteSpace=wrap;perimeter=rhombusPerimeter;fillColor=#ffcccc;strokeColor=#36393d;" vertex="1" parent="1">
          <mxGeometry x="170" y="70" width="120" height="80" as="geometry" />
        </mxCell>
        <mxCell id="OvgkeByuIe_Kdo7EQXN--7" value="Sub Process" style="html=1;dashed=0;whiteSpace=wrap;shape=mxgraph.dfd.start;" vertex="1" parent="1">
          <mxGeometry x="40" y="190" width="120" height="40" as="geometry" />
        </mxCell>
        <mxCell id="OvgkeByuIe_Kdo7EQXN--8" value="Data" style="shape=parallelogram;perimeter=parallelogramPerimeter;whiteSpace=wrap;html=1;dashed=0;fillColor=#ffcccc;strokeColor=#36393d;" vertex="1" parent="1">
          <mxGeometry x="40" y="250" width="120" height="60" as="geometry" />
        </mxCell>
        <mxCell id="OvgkeByuIe_Kdo7EQXN--27" style="edgeStyle=orthogonalEdgeStyle;rounded=0;orthogonalLoop=1;jettySize=auto;html=1;" edge="1" parent="1" source="OvgkeByuIe_Kdo7EQXN--9" target="OvgkeByuIe_Kdo7EQXN--26">
          <mxGeometry relative="1" as="geometry" />
        </mxCell>
        <mxCell id="OvgkeByuIe_Kdo7EQXN--9" value="Clients" style="shape=cube;whiteSpace=wrap;html=1;boundedLbl=1;backgroundOutline=1;darkOpacity=0.05;darkOpacity2=0.1;fillColor=#eeeeee;strokeColor=#36393d;" vertex="1" parent="1">
          <mxGeometry x="495" y="280" width="120" height="80" as="geometry" />
        </mxCell>
        <mxCell id="OvgkeByuIe_Kdo7EQXN--10" value="Note" style="shape=note;size=20;whiteSpace=wrap;html=1;fillColor=#ffff88;strokeColor=#36393d;" vertex="1" parent="1">
          <mxGeometry x="30" y="-10" width="120" height="80" as="geometry" />
        </mxCell>
        <mxCell id="OvgkeByuIe_Kdo7EQXN--11" value="State" style="shape=ellipse;html=1;dashed=0;whiteSpace=wrap;aspect=fixed;perimeter=ellipsePerimeter;fillColor=#cce5ff;strokeColor=#36393d;" vertex="1" parent="1">
          <mxGeometry x="190" y="250" width="60" height="60" as="geometry" />
        </mxCell>
        <mxCell id="OvgkeByuIe_Kdo7EQXN--12" value="Remote&lt;br&gt;Relation" style="ellipse;shape=doubleEllipse;html=1;dashed=0;whiteSpace=wrap;aspect=fixed;fillColor=#eeeeee;strokeColor=#36393d;" vertex="1" parent="1">
          <mxGeometry x="190" y="330" width="60" height="60" as="geometry" />
        </mxCell>
        <mxCell id="OvgkeByuIe_Kdo7EQXN--13" value="POST" style="shape=ellipse;html=1;dashed=0;whiteSpace=wrap;aspect=fixed;perimeter=ellipsePerimeter;fillColor=#eeeeee;strokeColor=#36393d;" vertex="1" parent="1">
          <mxGeometry x="280" y="280" width="40" height="40" as="geometry" />
        </mxCell>
        <mxCell id="OvgkeByuIe_Kdo7EQXN--14" value="GET" style="shape=ellipse;html=1;dashed=0;whiteSpace=wrap;aspect=fixed;perimeter=ellipsePerimeter;fillColor=#eeeeee;strokeColor=#36393d;" vertex="1" parent="1">
          <mxGeometry x="280" y="240" width="40" height="40" as="geometry" />
        </mxCell>
        <mxCell id="OvgkeByuIe_Kdo7EQXN--15" value="PUT" style="shape=ellipse;html=1;dashed=0;whiteSpace=wrap;aspect=fixed;perimeter=ellipsePerimeter;fillColor=#eeeeee;strokeColor=#36393d;" vertex="1" parent="1">
          <mxGeometry x="280" y="320" width="40" height="40" as="geometry" />
        </mxCell>
        <mxCell id="OvgkeByuIe_Kdo7EQXN--16" value="DEL" style="shape=ellipse;html=1;dashed=0;whiteSpace=wrap;aspect=fixed;perimeter=ellipsePerimeter;fillColor=#eeeeee;strokeColor=#36393d;" vertex="1" parent="1">
          <mxGeometry x="280" y="360" width="40" height="40" as="geometry" />
        </mxCell>
        <mxCell id="OvgkeByuIe_Kdo7EQXN--17" value="Entity" style="html=1;dashed=0;whiteSpace=wrap;fillColor=#cce5ff;strokeColor=#36393d;" vertex="1" parent="1">
          <mxGeometry x="190" y="420" width="120" height="60" as="geometry" />
        </mxCell>
        <mxCell id="OvgkeByuIe_Kdo7EQXN--18" value="Start / End" style="html=1;dashed=0;whiteSpace=wrap;shape=mxgraph.dfd.start;fillColor=#ffcc99;strokeColor=#36393d;" vertex="1" parent="1">
          <mxGeometry x="40" y="420" width="120" height="40" as="geometry" />
        </mxCell>
        <mxCell id="OvgkeByuIe_Kdo7EQXN--19" value="Selection" style="shape=rhombus;html=1;dashed=0;whiteSpace=wrap;perimeter=rhombusPerimeter;fillColor=#ffcccc;strokeColor=#36393d;" vertex="1" parent="1">
          <mxGeometry x="375" y="70" width="120" height="80" as="geometry" />
        </mxCell>
        <mxCell id="OvgkeByuIe_Kdo7EQXN--20" value="Delay/Await" style="shape=delay;whiteSpace=wrap;html=1;fillColor=#ffcc99;strokeColor=#36393d;" vertex="1" parent="1">
          <mxGeometry x="40" y="480" width="120" height="60" as="geometry" />
        </mxCell>
        <mxCell id="OvgkeByuIe_Kdo7EQXN--35" style="edgeStyle=orthogonalEdgeStyle;rounded=0;orthogonalLoop=1;jettySize=auto;html=1;" edge="1" parent="1" source="OvgkeByuIe_Kdo7EQXN--22" target="OvgkeByuIe_Kdo7EQXN--34">
          <mxGeometry relative="1" as="geometry" />
        </mxCell>
        <mxCell id="OvgkeByuIe_Kdo7EQXN--22" value="Yes" style="shape=ellipse;html=1;dashed=0;whiteSpace=wrap;perimeter=ellipsePerimeter;fillColor=#cdeb8b;strokeColor=#36393d;" vertex="1" parent="1">
          <mxGeometry x="810" y="300" width="40" height="40" as="geometry" />
        </mxCell>
        <mxCell id="OvgkeByuIe_Kdo7EQXN--29" style="edgeStyle=orthogonalEdgeStyle;rounded=0;orthogonalLoop=1;jettySize=auto;html=1;" edge="1" parent="1" source="OvgkeByuIe_Kdo7EQXN--23" target="OvgkeByuIe_Kdo7EQXN--28">
          <mxGeometry relative="1" as="geometry" />
        </mxCell>
        <mxCell id="OvgkeByuIe_Kdo7EQXN--23" value="No" style="shape=ellipse;html=1;dashed=0;whiteSpace=wrap;perimeter=ellipsePerimeter;fillColor=#ffcc99;strokeColor=#36393d;" vertex="1" parent="1">
          <mxGeometry x="710" y="380" width="40" height="40" as="geometry" />
        </mxCell>
        <mxCell id="OvgkeByuIe_Kdo7EQXN--24" value="" style="edgeStyle=orthogonalEdgeStyle;rounded=0;orthogonalLoop=1;jettySize=auto;html=1;" edge="1" parent="1" source="OvgkeByuIe_Kdo7EQXN--26" target="OvgkeByuIe_Kdo7EQXN--22">
          <mxGeometry relative="1" as="geometry" />
        </mxCell>
        <mxCell id="OvgkeByuIe_Kdo7EQXN--25" value="" style="edgeStyle=orthogonalEdgeStyle;rounded=0;orthogonalLoop=1;jettySize=auto;html=1;" edge="1" parent="1" source="OvgkeByuIe_Kdo7EQXN--26" target="OvgkeByuIe_Kdo7EQXN--23">
          <mxGeometry relative="1" as="geometry" />
        </mxCell>
        <mxCell id="OvgkeByuIe_Kdo7EQXN--26" value="Specific &lt;br&gt;Client Turn?" style="shape=rhombus;html=1;dashed=0;whiteSpace=wrap;perimeter=rhombusPerimeter;fillColor=#ffcccc;strokeColor=#36393d;" vertex="1" parent="1">
          <mxGeometry x="670" y="280" width="120" height="80" as="geometry" />
        </mxCell>
        <mxCell id="OvgkeByuIe_Kdo7EQXN--32" style="edgeStyle=orthogonalEdgeStyle;rounded=0;orthogonalLoop=1;jettySize=auto;html=1;" edge="1" parent="1" source="OvgkeByuIe_Kdo7EQXN--28" target="OvgkeByuIe_Kdo7EQXN--30">
          <mxGeometry relative="1" as="geometry" />
        </mxCell>
        <mxCell id="OvgkeByuIe_Kdo7EQXN--28" value="Respond false" style="html=1;dashed=0;whiteSpace=wrap;shape=mxgraph.dfd.start;fillColor=#ffcc99;strokeColor=#36393d;" vertex="1" parent="1">
          <mxGeometry x="670" y="480" width="120" height="40" as="geometry" />
        </mxCell>
        <mxCell id="OvgkeByuIe_Kdo7EQXN--33" style="edgeStyle=orthogonalEdgeStyle;rounded=0;orthogonalLoop=1;jettySize=auto;html=1;" edge="1" parent="1" source="OvgkeByuIe_Kdo7EQXN--30" target="OvgkeByuIe_Kdo7EQXN--9">
          <mxGeometry relative="1" as="geometry" />
        </mxCell>
        <mxCell id="OvgkeByuIe_Kdo7EQXN--30" value="Data" style="shape=parallelogram;perimeter=parallelogramPerimeter;whiteSpace=wrap;html=1;dashed=0;fillColor=#ffcccc;strokeColor=#36393d;" vertex="1" parent="1">
          <mxGeometry x="495" y="470" width="120" height="60" as="geometry" />
        </mxCell>
        <mxCell id="OvgkeByuIe_Kdo7EQXN--34" value="Check action sent" style="rounded=1;arcSize=18;whiteSpace=wrap;html=1;align=center;" vertex="1" parent="1">
          <mxGeometry x="880" y="290" width="120" height="60" as="geometry" />
        </mxCell>
        <mxCell id="OvgkeByuIe_Kdo7EQXN--36" value="Process action" style="rounded=1;arcSize=18;whiteSpace=wrap;html=1;align=center;" vertex="1" parent="1">
          <mxGeometry x="880" y="380" width="120" height="60" as="geometry" />
        </mxCell>
        <mxCell id="OvgkeByuIe_Kdo7EQXN--37" value="Increase turn count" style="rounded=1;arcSize=18;whiteSpace=wrap;html=1;align=center;" vertex="1" parent="1">
          <mxGeometry x="880" y="460" width="120" height="60" as="geometry" />
        </mxCell>
        <mxCell id="OvgkeByuIe_Kdo7EQXN--38" value="Increase turn count" style="rounded=1;arcSize=18;whiteSpace=wrap;html=1;align=center;" vertex="1" parent="1">
          <mxGeometry x="880" y="550" width="120" height="60" as="geometry" />
        </mxCell>
      </root>
    </mxGraphModel>
  </diagram>
</mxfile>
